<?xml version="1.0" encoding="utf-8"?>
<!-- Generator: Adobe Illustrator 18.0.0, SVG Export Plug-In . SVG Version: 6.00 Build 0)  -->
<!DOCTYPE svg PUBLIC "-//W3C//DTD SVG 1.1//EN" "http://www.w3.org/Graphics/SVG/1.1/DTD/svg11.dtd">
<svg version="1.1" id="Layer_1" xmlns="http://www.w3.org/2000/svg" xmlns:xlink="http://www.w3.org/1999/xlink" x="0px" y="0px"
	 viewBox="0 138.3 297.6 144.3" enable-background="new 0 138.3 297.6 144.3" xml:space="preserve">
<g>
	<path fill="#FFFFFF" d="M121.6,253.4l26.3,11.5l26.3-11.5l-26.3-11.5L121.6,253.4z M144.3,249.3
		C144.3,249.4,144.3,249.4,144.3,249.3l-2.5,0.2c-0.2,0-0.2,0-0.2,0.2v1.8c0,0.2,0,0.2,0.2,0.2h1.8c0,0,0.2,0,0.2,0.2v1.1
		c0,0.2,0,0.2-0.2,0.2h-1.8c-0.2,0-0.2,0-0.2,0.2v3.2c0,0,0,0.2,0.2,0.2h2.3c0,0,0.2,0,0.2,0.2v1.1c0,0.2,0,0.2-0.2,0.2h-3.6
		c-0.2,0-0.2,0-0.2-0.2v-9.6c0-0.2,0-0.2,0.2-0.2h3.6c0,0,0.2,0,0.2,0.2V249.3z M157.5,256.8C157.5,256.6,157.5,256.6,157.5,256.8
		l1.3-0.2c0.2,0,0.2,0,0.2,0.2v1.1c0,0.2,0,0.2-0.2,0.2h-1.1c-0.2,0-0.2,0-0.2-0.2V256.8z M151.7,248.2L151.7,248.2l4.3-0.2
		c0,0,0.2,0,0.2,0.2v1.1c0,0,0,0.2-0.2,0.2h-1.3c-0.2,0-0.2,0-0.2,0.2v8.3c0,0.2,0,0.2-0.2,0.2h-0.9c-0.2,0-0.2,0-0.2-0.2v-8.3
		c0-0.2,0-0.2-0.2-0.2h-1.4c-0.2,0-0.2,0-0.2-0.2C151.7,249.3,151.7,248.2,151.7,248.2z M149.2,248.2l1.1,1.1l0.2,0.2v1.4
		c0,0.2,0,0.2-0.2,0.2h-1.1c0,0-0.2,0-0.2-0.2v-0.7c0,0,0-0.2-0.2-0.2l-0.4-0.4c0,0-0.2-0.2-0.4-0.2h-0.5c0,0-0.2,0-0.2,0.2L147,250
		l-0.2,0.2v1.4c0,0,0,0.2,0.2,0.2l0.4,0.4l0.2,0.2h1.3c0,0,0.2,0,0.2,0.2l1.1,1.1c0,0,0.2,0.2,0.2,0.4v2.9c0,0,0,0.2-0.2,0.2
		l-1.1,1.1c0,0-0.2,0.2-0.4,0.2h-1.8c0,0-0.2,0-0.2-0.2l-1.1-1.1l-0.2-0.2v-1.6c0-0.2,0-0.2,0.2-0.2h1.1c0.2,0,0.2,0,0.2,0.2v1.1
		c0,0.2,0,0.2,0.2,0.4l0.4,0.4l0.2,0.2h0.5c0.2,0,0.2,0,0.4-0.2l0.4-0.4c0,0,0.2-0.2,0.2-0.4v-1.8c0-0.2,0-0.2-0.2-0.4l-0.4-0.4
		l-0.2-0.2H147c0,0-0.2,0-0.2-0.2l-1.1-1.1c0,0-0.2-0.2-0.2-0.4v-2.5c0,0,0-0.2,0.2-0.2l1.1-1.1l0.2-0.2h1.8
		C149,248.2,149.2,248.2,149.2,248.2z"/>
	<path fill="#FFFFFF" d="M107.3,259h-1.6c-0.2,0-0.4-0.2-0.4-0.4v-15c0-0.2-0.2-0.4-0.4-0.4h-0.7c-0.2,0-0.4,0-0.5,0H103
		c-0.2,0-0.4,0-0.4,0l-0.2,0.2l-2.5,4.9c-0.2,0.2,0,0.4,0.2,0.4l1.6,0.9c0.2,0.2,0.4,0,0.4-0.2l0.7-1.3c0.2,0,0.2,0.2,0.2,0.2v10.3
		c0,0.2-0.2,0.4-0.4,0.4h-1.4c-0.2,0-0.4,0.2-0.4,0.4v2c0,0.2,0.2,0.4,0.4,0.4h1.4c0.2,0,0.4,0,0.5,0h2c0.2,0,0.4,0,0.5,0h1.6
		c0.2,0,0.4-0.2,0.4-0.4v-2C107.7,259.2,107.5,259,107.3,259z"/>
	<path fill="#FFFFFF" d="M115.8,243.7c-0.2-0.2-0.4-0.2-0.5-0.2H112c-0.2,0-0.4,0-0.5,0.2l-2,2c-0.2,0.2-0.2,0.4-0.2,0.5v5.2
		c0,0.2,0.2,0.4,0.2,0.5l2,2c0.2,0.2,0.4,0.2,0.5,0.2h3.1c0.2,0,0.4,0.2,0.4,0.4v3.6c0,0.2-0.2,0.4-0.2,0.5l-0.5,0.5
		c-0.2,0.2-0.4,0.2-0.5,0.2h-1.1c-0.2,0-0.4-0.2-0.5-0.2l-0.5-0.5c0-0.5,0-0.7,0-0.9v-1.4c0-0.2-0.2-0.4-0.4-0.4h-2
		c-0.2,0-0.4,0.2-0.4,0.4v2.5c0,0.2,0.2,0.4,0.2,0.5l2,2c0.2,0.2,0.4,0.2,0.5,0.2h3.2c0.2,0,0.4-0.2,0.5-0.2l2-2
		c0.2-0.2,0.2-0.4,0.2-0.5V246c0-0.2-0.2-0.4-0.2-0.5L115.8,243.7z M115.4,250.2c0,0.2-0.2,0.4-0.2,0.5l-0.5,0.5
		c-0.2,0.2-0.4,0.2-0.5,0.2h-1.1c-0.2,0-0.4-0.2-0.5-0.2l-0.5-0.5c0-0.2,0-0.4,0-0.5v-3.1c0-0.2,0.2-0.4,0.2-0.5l0.5-0.5
		c0.2-0.2,0.4-0.2,0.5-0.2h1.1c0.2,0,0.4,0,0.5,0.2l0.5,0.5c0.2,0.2,0.2,0.4,0.2,0.5v3.1H115.4z"/>
	<path fill="#FFFFFF" d="M182.2,243.7c-0.2-0.2-0.4-0.2-0.5-0.2h-3.2c-0.2,0-0.4,0-0.5,0.2l-2,2c-0.2,0.2-0.2,0.4-0.2,0.5V259
		c0,0.2,0.2,0.4,0.2,0.5l2,2c0.2,0.2,0.4,0.2,0.5,0.2h3.2c0.2,0,0.4-0.2,0.5-0.2l2-2c0.2-0.2,0.2-0.4,0.2-0.5v-5.2
		c0-0.2-0.2-0.4-0.2-0.5l-2-2c-0.2-0.2-0.4-0.2-0.5-0.2h-3.1c-0.2,0-0.4-0.2-0.4-0.4v-3.6c0-0.2,0.2-0.4,0.2-0.5l0.5-0.5
		c0.2-0.2,0.4-0.2,0.5-0.2h1.1c0.2,0,0.4,0,0.5,0.2l0.5,0.5c0.2,0.2,0.2,0.4,0.2,0.5v1.4c0,0.2,0.2,0.4,0.4,0.4h2
		c0.2,0,0.4-0.2,0.4-0.4V246c0-0.2-0.2-0.4-0.2-0.5L182.2,243.7z M178.4,254.3l0.5-0.5c0.2-0.2,0.4-0.2,0.5-0.2h1.1
		c0.2,0,0.4,0.2,0.5,0.2l0.5,0.5c0.2,0.2,0.2,0.4,0.2,0.5v3.1c0,0.2-0.2,0.4-0.2,0.5l-0.5,0.5c-0.2,0.2-0.4,0.2-0.5,0.2h-1.1
		c-0.2,0-0.4-0.2-0.5-0.2l-0.5-0.5c-0.2-0.2-0.2-0.4-0.2-0.5v-3.1C178.2,254.7,178.4,254.3,178.4,254.3z"/>
	<path fill="#FFFFFF" d="M193,243.7c-0.2-0.2-0.4-0.2-0.5-0.2h-3.2c-0.2,0-0.4,0.2-0.5,0.2l-2,2c-0.2,0.2-0.2,0.4-0.2,0.5v2.5
		c0,0.2,0.2,0.4,0.4,0.4h2c0.2,0,0.4-0.2,0.4-0.4v-1.4c0-0.2,0.2-0.4,0.2-0.5l0.5-0.5c0.2-0.2,0.4-0.2,0.5-0.2h1.1
		c0.2,0,0.4,0.2,0.5,0.2l0.5,0.5c0.2,0.2,0.2,0.4,0.2,0.5v2.5c0,0.2-0.2,0.4-0.2,0.5l-0.5,0.5c-0.2,0.2-0.4,0.2-0.5,0.2h-2.2
		c-0.2,0-0.4,0.2-0.5,0.2l-2,2c-0.2,0.2-0.2,0.4-0.2,0.5v7.8c0,0.2,0.2,0.4,0.4,0.4h7.9c0.2,0,0.4-0.2,0.4-0.4v-2
		c0-0.2-0.2-0.4-0.4-0.4h-5.4c-0.2,0-0.4-0.2-0.4-0.4v-4.1c0-0.2,0.2-0.4,0.2-0.5l0.5-0.5c0.2-0.2,0.4-0.2,0.5-0.2h2.2
		c0.2,0,0.4-0.2,0.5-0.2l2-2c0.2-0.2,0.2-0.4,0.2-0.5v-4.5c0-0.2-0.2-0.4-0.2-0.5L193,243.7z"/>
	<path fill="#FFFFFF" d="M197.9,204.9c-0.2-0.2-0.4-0.2-0.5-0.2h-1.4c-0.2,0-0.5,0.2-0.5,0.2l-0.7,0.5c-0.2,0.2-0.2,0.4-0.2,0.5
		v13.3c0,0.2,0.2,0.5,0.2,0.5l0.7,0.7c0.2,0.2,0.4,0.2,0.5,0.2h1.4c0.2,0,0.5-0.2,0.5-0.2l0.5-0.7c0.2-0.2,0.2-0.4,0.2-0.5V206
		c0-0.2-0.2-0.5-0.2-0.5L197.9,204.9z"/>
	<path fill="#FFFFFF" d="M99.9,208.8l-1.8,7.8c0,0.2,0,0.4,0.2,0.4h3.4c0.2,0,0.4-0.2,0.2-0.4L99.9,208.8
		C99.9,208.7,99.9,208.7,99.9,208.8z"/>
	<path fill="#FFFFFF" d="M0,138.3v144.3h297.6V138.3H0z M295.8,140.1v52.5H179.7c-0.4-0.2-0.5-0.4-0.7-0.7c0.7-0.2,0.7,0.2,0.9,0.5
		c0.2-0.5,0.2-0.2,0.7-0.2c-0.2-0.9-2-0.9-1.4-1.8c0.4,0.2,1.1,0.2,1.4,0.2c-0.5-1.1-2-1.3-2.7-2c1.3-0.2,1.3,0.7,2.5,0.5
		c0-0.7-0.7-0.7-0.9-1.1c0-0.2,0.2-0.2,0.4-0.4c0.2,0,0,0.5,0.4,0.4c0-0.2,0.2-0.2,0.4-0.2c0.2-0.7-0.7-0.4-0.7-0.9
		c0.2-0.2,0.2-0.4,0.5-0.4c0.2,0,0,0.5,0.4,0.4c0-0.4,0.2-0.5,0.2-0.9c-0.2,0-0.4,0.4-0.5,0c0-0.5,0.7-0.4,0.7-0.7
		c-0.2-0.5-0.7-0.7-1.1-1.1c0.5-0.4,0.5,0.2,1.1,0.2c0.2-0.5,0.2-1.4,0.4-2c0-0.4-0.5-0.2-0.5-0.5c0-0.4,0.4,0,0.5-0.2
		c0-0.4,0-0.7-0.2-0.9c-0.4,0.2-0.9-0.2-0.7-0.5c0.2,0,0.5,0.4,0.7,0.2c0.2-0.4-0.2-0.7-0.4-1.1c0.4-0.2,0.4-0.9,0.2-1.4
		c-0.4,0-0.4-0.2-0.5-0.4c0.4,0,0.2,0.2,0.5,0.2c0-1.1,0-1.4,0-2.5c-0.2-0.2-0.5,0-0.5-0.4c0-0.2,0.4,0,0.5-0.2
		c-0.4-1.6,0.5-3.4-0.7-4.3c0.4,0,0.4,0.2,0.7-0.2c0-0.7-0.5-0.9-0.7-1.4c0.4,0.2,0.4,0,0.7-0.2c0-0.5-0.4-0.5-0.2-0.9
		c-0.2-0.2-0.7,0-0.7-0.5c0.4,0,0.5,0,0.7-0.2c0-0.9-0.7-0.9-0.9-1.4c0.2-0.2,0.5,0.2,0.7-0.2c0-0.7-0.5-1.1-0.9-1.4
		c0-0.2,0.5-0.2,0.5-0.5c-0.2-0.5-0.7-0.7-0.5-1.4c-0.4-0.2-0.9,0.4-0.9-0.4c0.4-0.4,0.4,0.2,0.9,0.2c-0.2-0.7-0.4-1.3-0.9-1.6
		c0.2-0.2,0.4-0.4,0.5-0.5c-0.4-0.5-0.5-1.3-1.3-1.6c0.2-0.2,0.2-0.4,0.2-0.5c-1.1-1.6-2.2-3.6-4.3-3.8c1.1,0.9,2.5,1.8,3.1,2.9
		c-1.8-0.9-2.9-2.5-4.9-3.2c0.2,0.5,0.9,0.5,1.1,1.3c0,0.2-0.2,0.2-0.4,0.4c0.2-0.2,1.3,0,0.5,0.5c-1.3-0.4-1.6-1.8-3.1-2
		c0.5,0.5,1.1,1.4,1.8,2c1.1,0.9,3.2,1.8,2.7,3.2c-0.4-0.4-0.4-0.4-0.2-0.9c-0.4-0.2-0.4,0.2-0.5,0.2c-2-1.4-3.4-3.2-5.4-4.7
		c1.3,2,4,3.4,5.4,5.6c0.5,0.2,1.4,0.9,0.9,1.3c-0.4,0-0.4-0.2-0.4-0.5c-1.3-0.2-1.8-1.1-2.7-1.8c0-0.2,0.2-0.2,0.2-0.4
		c-0.2-0.2-0.2,0.2-0.5,0.2c-1.8-1.3-3.1-3.2-5.1-4.3c1.3,1.8,3.2,3.1,4.7,4.9c0.2,0.2-0.4,0.4,0,0.4c0.5-0.4,1.1,0.9,1.6,1.1
		c-0.2,0.2-0.2,0.4-0.5,0.4c-0.5-0.4-1.1-0.7-1.4-1.4c-0.5,0-0.5-0.7-1.3-0.7c-0.9-0.7-1.6-1.6-2.5-2.5c-0.9-0.7-1.6-1.6-2.9-2
		c1.6,1.8,3.6,3.2,5.1,5.2c0.7,0.7,1.6,1.3,2.2,2.2c-0.2,0.4-0.7,0-0.7-0.5c0-0.2-0.2,0.2-0.5,0.2c0-0.4-0.4-0.4-0.4-0.7
		c-0.7,0-0.9-0.4-0.7-0.9c-0.2,0,0.2,0.5-0.4,0.4c-1.1-0.9-2-1.8-3.2-2.9c-1.1-1.1-2.2-2.2-3.2-2.7c2.3,2.7,5.4,4.9,7.6,7.8
		c-0.2,0,0,0.4-0.4,0.4c-0.2-0.4-0.5-0.4-0.5-0.7c-2.2-1.4-4-3.2-6-5.1c-1.1-1.1-2-2.2-2.9-2c2.2,2.2,4.7,3.8,6.5,6.1
		c0.4,0.2,1.1,0.7,0.5,1.1c-0.4-0.2-0.5-0.2-0.5-0.7c-0.2,0-0.2,0.2-0.4,0.2c-1.3-1.1-2.7-2.3-4-3.6c-1.3-1.3-2.5-2.7-4.1-3.1
		c0.4,0.5,1.1,0.7,1.3,1.4c-0.2,0-0.2,0.4-0.4,0.4c-1.1-0.5-1.6-1.4-2.9-1.8c2.2,2.7,5.4,4.1,7.4,6.9c-0.2,0-0.2,0.2-0.4,0.2
		c-1.3-1.1-2.9-1.8-3.8-3.4c-0.4,0-0.9-0.2-0.7-0.9c-0.2,0-0.2,0.2-0.4,0.2c-1.3-0.9-2.5-2.5-4.3-2.7c1.6,1.3,3.4,2.3,4.9,4
		c0.2,0.2-0.4,0.4,0,0.4c0-0.2,0.2-0.2,0.4-0.2c0.9,0.9,2.9,1.6,2.7,2.9c-2.2-1.4-4-3.2-5.8-4.9c-1.4-0.4-2.3-2.2-4.1-2.2
		c1.8,1.6,4.1,2.7,5.6,4.5c0.4,0.4,0.9,0.5,1.4,0.9c0.7,0.5,1.6,1.3,1.4,2c-1.1-0.7-2.5-1.6-2.9-2.9c-0.2,0-0.2,0.2-0.5,0.2
		c-1.1-0.9-2-1.6-3.6-2.7c-1.1-0.7-2.3-2-3.8-2c3.8,2.3,7.4,4.9,10.1,8.3c-1.4-0.2-2-1.8-3.4-2.2c-1.1-1.3-2.5-2-4.3-3.2
		c-1.3-0.9-3.1-2.3-4.7-2.5c1.1,0.7,2.2,1.4,3.1,2c2.9,1.8,5.6,3.8,7.8,6.3c-0.2,0-0.2,0.2-0.4,0.4c-1.3-0.9-2.3-2-3.6-2.9
		c-1.1-0.9-2.7-2-4.1-2.9c-1.4-0.9-3.6-2.5-5.4-2.7c4.7,2.7,9.4,5.4,12.8,9.4c-0.2,0,0,0.2-0.2,0.2c-0.5,0-0.4-0.7-0.5-0.9
		c0,0.2-0.2,0.2-0.4,0.4c-2.2-1.6-4.1-3.4-6.7-5.1c-0.9-0.5-2-1.1-3.1-1.8c-1.4-0.9-2.5-1.8-4.1-2c0.7,0.9,1.8,1.1,2.9,1.6
		c3.4,1.6,6.7,4,9.4,6.1c0.4,0.4,1.1,0.9,0.7,1.6c-4-3.1-8.1-6-12.8-8.3c-0.5-0.2-1.1-0.2-1.4-0.7c-0.9-0.2-1.6-0.4-2.7-0.4
		c-0.2,0.2,0,0.5-0.4,0.5c-0.2-0.2-0.4-0.4-0.5-0.5c-1.1,0.2-2.3-0.7-2.9,0c0.5,0.2,1.3,0.2,1.3,0.7c0,0-0.2,0-0.2,0.2
		c-0.4,0-0.9,0-0.9-0.5c-0.4,0.2-0.5,0.2-0.7,0c0-0.4,0.2-0.4,0-0.5c-0.4-0.2-0.2,0.4-0.5,0.4c-0.4,0-0.2-0.5-0.5-0.5
		c-1.6-0.4-3.1-0.7-4.7-1.1c-0.2,0.2,0.4,0.5,0,0.9c-0.2-0.2-0.5-0.2-0.9-0.4c0.2,0,0.2-0.2,0.2-0.4c-1.3,0.4-2.7-0.9-4.1-0.9
		c0,0.4,0.5,0.4,0.4,0.9c-0.5,0.2-0.7-0.2-0.7-0.7c-0.4,0-0.2,0.2-0.4,0.4c-2.2-0.5-4-2.2-6.3-2.2c-0.4-0.5-1.6-0.7-2.3-0.5
		c-0.2,0.4,0.4,0.4,0.2,0.5c-0.5,0.2-0.2-0.4-0.7-0.4c-2.3,0-3.6,0.9-5.4,1.3c-0.2,0.5-0.5,0.7-1.3,0.7c-0.7,0.7-1.3,1.6-2,2.2
		c0,0,0.4,0.4,0.2,0.4c-0.4-0.4-1.1-0.4-1.6-0.4c0,0.2,0.2,0.5-0.2,0.5c-0.7,0-0.4-0.5-0.5-0.7c0-0.7-0.7-1.8-1.6-1.6
		c0,0.5,0.5,0.5,0.4,0.9c-0.5,0-0.7-0.4-0.5-0.7c-0.5,0-1.1,0-1.3,0.4c0,0.4,0.5,0.4,0.4,0.7c-0.4,0-0.4-0.4-0.7-0.4
		c-0.5,0.4-0.7,1.1-1.4,1.1c0,0.4,0.4,0.5,0,0.7c-0.4-0.2-0.5-0.2-0.9-0.4c-0.2,0.5-0.7,0.5-1.3,0.7c-0.2,0.4,0.2,0.5,0,0.7
		c-0.2,0-0.5-0.2-0.7,0.2c0,0.5,0.4,0.5,0.2,0.9c-0.5-0.2-0.5-0.2-0.7,0.2c0,0.5,0.7,0.7,0.4,1.3c-0.2,0,0-0.5-0.4-0.4
		c-0.2,0-0.2,0.4-0.5,0.2c-0.2,1.1,1.4,1.3,0.9,2c-0.4-0.5-0.7-0.9-1.4-0.7c-0.2,0.5,0.2,0.7,0.2,1.1c-0.2,0.2-0.5-0.2-0.7,0.2
		c-0.5,1.8-2.2,3.1-3.1,4.7c0,0.4,0.7,0.4,0.9,0.5c0,0.5-0.7,0.5-0.9,0.5c0.7,1.4,2,2.2,2.9,3.6c0.9,0.2,1.6,0,2.2-0.4
		c0.7,0.4,1.1,1.3,1.8,1.6c0.7-0.4,1.6-0.7,2.5-1.1c0.2,0.2,0.7,0,1.1,0.2c0.4-0.4,1.4-0.5,2.2-0.4c0.2-0.2,0.5-0.2,0.9-0.2
		c2.3,1.1,4.3,2.3,6.1,4c0.2,0.9,0.9,2,0.9,3.1c0.2,0.2,0.5,0.2,0.5,0.4c-0.2,0.2-0.4-0.2-0.4,0.2c1.1,3.2,4,4.7,6.5,6.5
		c0.2,0,0.4-0.2,0.7-0.2c-0.4,0.7,0.7,0.5,0.9,0.5c-0.2,0-0.2,0-0.2,0.2c0.9,0.5,1.4,1.1,2,1.8c0,0.2-0.2,0.4-0.4,0.7
		c0.2,0.5,0.7,0.7,1.1,1.1c-0.2,0.2-0.5-0.2-0.7,0.2c0.5,0.9,0.9,2,1.1,3.4H1.8v-52.5H295.8z M270.2,209.6h4c0.2,0,0.4,0.2,0.4,0.4
		v2.3c0,0.2-0.2,0.4-0.4,0.4h-4c-0.2,0-0.4,0.2-0.4,0.4v7.4c0,0.2,0.2,0.4,0.4,0.4h5.2c0.2,0,0.4,0.2,0.4,0.4v2.3
		c0,0.2-0.2,0.4-0.4,0.4h-8.3c-0.2,0-0.4-0.2-0.4-0.4v-21.6c0-0.2,0.2-0.4,0.4-0.4h8.3c0.2,0,0.4,0.2,0.4,0.4v2.3
		c0,0.2-0.2,0.4-0.4,0.4h-5.2c-0.2,0-0.4,0.2-0.4,0.4v4.1C269.9,209.4,270,209.6,270.2,209.6z M248.8,205.4l-0.5-0.7
		c-0.2-0.2-0.4-0.2-0.5-0.2h-1.4c-0.2,0-0.4,0.2-0.5,0.2l-0.5,0.7c-0.2,0.2-0.2,0.4-0.2,0.5v3.1c0,0.2,0.2,0.5,0.2,0.5l0.7,0.5
		c0.2,0.2,0.4,0.2,0.5,0.2h2.7c0.2,0,0.5,0.2,0.5,0.2l2.5,2.5c0.2,0.2,0.2,0.4,0.2,0.5v6.7c0,0.2-0.2,0.5-0.2,0.5l-2.5,2.5
		c-0.2,0.2-0.4,0.2-0.5,0.2h-4c-0.2,0-0.4-0.2-0.5-0.2l-2.5-2.5c-0.2-0.2-0.2-0.4-0.2-0.5v-3.8c0-0.2,0.2-0.4,0.4-0.4h2.3
		c0.2,0,0.4,0.2,0.4,0.4v2.5c0,0.2,0.2,0.5,0.2,0.5l0.5,0.5c0.2,0.2,0.4,0.2,0.5,0.2h1.4c0.2,0,0.5-0.2,0.5-0.2l0.5-0.5
		c0.2-0.2,0.2-0.4,0.2-0.5v-4.1c0-0.2-0.2-0.5-0.2-0.5l-0.7-0.5c-0.2-0.2-0.4-0.2-0.5-0.2h-2.7c-0.2,0-0.5-0.2-0.5-0.2l-2.5-2.5
		c-0.2-0.2-0.2-0.4-0.2-0.5v-5.8c0-0.2,0.2-0.4,0.2-0.5l2.5-2.5c0.2-0.2,0.4-0.2,0.5-0.2h4c0.2,0,0.5,0.2,0.5,0.2l2.5,2.5
		c0.2,0.2,0.2,0.4,0.2,0.5v3.1c0,0.2-0.2,0.4-0.4,0.4h-2.3c-0.2,0-0.4-0.2-0.4-0.4v-1.8C248.9,205.8,248.9,205.6,248.8,205.4z
		 M219.7,220l0.5,0.5c0.2,0.2,0.4,0.2,0.5,0.2h1.4c0.2,0,0.5-0.2,0.5-0.2l0.5-0.5c0.2-0.2,0.2-0.4,0.2-0.5V202
		c0-0.2,0.2-0.4,0.4-0.4h2.3c0.2,0,0.4,0.2,0.4,0.4v18.9c0,0.2-0.2,0.5-0.2,0.5l-2.5,2.5c-0.2,0.2-0.4,0.2-0.5,0.2h-4
		c-0.2,0-0.5-0.2-0.5-0.2l-2.2-2.7c-0.2-0.2-0.2-0.4-0.2-0.5v-18.9c0-0.2,0.2-0.4,0.4-0.4h2.3c0.2,0,0.4,0.2,0.4,0.4v17.5
		C219.5,219.5,219.7,219.9,219.7,220z M201.9,204.7v15.9c0,0.2-0.2,0.5-0.2,0.5l-2.5,2.5c-0.2,0.2-0.4,0.2-0.5,0.2h-4
		c-0.2,0-0.5-0.2-0.5-0.2l-2.7-2.3c-0.2-0.2-0.2-0.4-0.2-0.5v-15.9c0-0.2,0.2-0.5,0.2-0.5l2.5-2.5c0.2-0.2,0.4-0.2,0.5-0.2h4
		c0.2,0,0.5,0.2,0.5,0.2l2.5,2.5C201.7,204.3,201.9,204.5,201.9,204.7z M173.2,213.5h-3.6c-0.2,0-0.4,0.2-0.4,0.4v9.7
		c0,0.2-0.2,0.4-0.4,0.4h-2.3c-0.2,0-0.4-0.2-0.4-0.4v-21.8c0-0.2,0.2-0.4,0.4-0.4h2.3c0.2,0,0.4,0.2,0.4,0.4v8.3
		c0,0.2,0.2,0.4,0.4,0.4h3.6c0.2,0,0.4-0.2,0.4-0.4v-8.3c0-0.2,0.2-0.4,0.4-0.4h2.3c0.2,0,0.4,0.2,0.4,0.4v21.8
		c0,0.2-0.2,0.4-0.4,0.4h-2.3c-0.2,0-0.4-0.2-0.4-0.4v-9.7C173.5,213.7,173.4,213.5,173.2,213.5z M152.8,219.5l-4.5-2.3l-4.3,2.3
		l0.9-4.9l-3.6-3.4l4.9-0.7l2.2-4.5l2.2,4.5l4.9,0.7l-3.6,3.4L152.8,219.5z M147.9,192.6h-5.6H125l-0.2-0.2c0.4-0.5,0-2-0.2-3.1
		c0.4-1.6,0.7-3.1,1.8-4c0-0.2-0.2-0.7,0-0.9c0.5,0,0.7,0,1.1,0.2c-0.2-0.4-0.2-0.5,0.2-0.7c0.7,0,1.1,0.2,1.8,0
		c0.2,0,0-0.5,0.2-0.5c0.4,0.4,1.1,0.2,1.8,0.2c0.2-0.2,0-0.5,0.2-0.5c2.3,0.2,5.4,0.4,7.8,0.5c0.7,0.4,1.6,0.7,2.5,0.4
		c1.1,0.5,2.5-0.2,3.6,0.4c0.2-0.2,0-0.4,0.4-0.4c0.4,0.4,1.6,0.5,2.2,0.4c1.1,0.7,3.4,0.2,5.1,0.4c0.4-0.2,0.7-0.5,1.3-0.4
		c0.2-0.2,0.2-0.5,0.5-0.5s0.5,0.2,0.9,0.2c0-0.5,0.2-0.7,0.4-0.9c1.8-0.5,2.9-2,4.1-3.1c0.4,0,0.2,0,0.5,0c0-0.5,0.5-0.7,0.9-0.9
		c-0.2-0.2,0.4-0.7,0.7-0.7c0.4,1.1,0.4,2.3,0.4,3.2c0,1.4,0.9,2.2,1.1,3.6c0.2,0.9-0.2,2,0.2,3.1c-0.4,1.4-0.5,2.9-0.7,4.3H147.9
		L147.9,192.6z M128.3,210.1l4.3,13.3c0,0.2,0,0.4-0.2,0.4h-2.5c-0.2,0-0.4-0.2-0.5-0.4l-3.1-9.6c0-0.2-0.2-0.2-0.4,0l-1.3,2.2
		c0,0.2-0.2,0.5-0.2,0.7v6.9c0,0.2-0.2,0.4-0.4,0.4h-2.3c-0.2,0-0.4-0.2-0.4-0.4v-22c0-0.2,0.2-0.4,0.4-0.4h2.3
		c0.2,0,0.4,0.2,0.4,0.4v7.8c0,0.2,0.2,0.2,0.2,0l4.3-7.9c0.2-0.2,0.4-0.4,0.5-0.4h2.9c0.2,0,0.2,0.2,0.2,0.4l-4.3,8.1
		C128.3,209.7,128.3,209.9,128.3,210.1z M118.7,176.4c0.5-0.9,1.8,0.2,2.2,0.5C120.1,176.7,119.4,176.7,118.7,176.4z M120.3,177.8
		c0,0.4-0.7,0-0.7-0.2C119.8,177.5,120,177.6,120.3,177.8z M118.2,177.1c0.2-0.5,0.9,0,1.3,0.2C119.1,178,118.5,177.3,118.2,177.1z
		 M119.1,178.7c0,0.4-0.5,0.2-0.5-0.2C118.9,178.4,118.9,178.5,119.1,178.7z M113.5,164.1c-0.2,0-0.4-0.2-0.5-0.4
		C113.1,163.6,113.5,163.9,113.5,164.1z M112.7,162.1c0.4,0,0.5,0,0.5,0.4C113.1,162.7,112.7,162.5,112.7,162.1z M113.3,161
		c-0.4,0-0.7,0-0.7-0.5c0.5,0.2,1.1,0.4,1.4,0.9C113.6,161.6,113.3,161.4,113.3,161z M112.4,161.9c-0.4,0-0.4,0-0.4-0.4
		C112,161.8,112.4,161.8,112.4,161.9z M111.5,160.1c0.2-0.4,0.7,0,0.7,0.4C111.7,160.5,111.7,160.3,111.5,160.1z M111.1,158.2
		c0.5,0.4,1.4,0.5,1.6,1.1C112,159.1,111.3,159.1,111.1,158.2z M108.2,159.2c0.7-0.2,1.4,0.5,1.6,1.3
		C109.3,160.5,108.1,160,108.2,159.2z M109.9,161.9c-0.2,0-0.5,0-0.5-0.4C109.7,161.6,109.9,161.8,109.9,161.9z M109,161.4
		c-0.4,0-0.5,0-0.5-0.4C108.6,160.9,109.1,161,109,161.4z M106.8,156.7c-0.4,0-0.4-0.2-0.4-0.5C106.8,156.2,107,156.5,106.8,156.7z
		 M106.8,154.9c0.4,0,0.7,0.4,0.5,0.5C107,155.6,106.6,155.3,106.8,154.9z M107.2,160.1c-0.4,0.2-0.4-0.2-0.7-0.4
		C106.6,159.4,107.2,159.8,107.2,160.1z M107.2,156.7c0.4,0.2,0.5,0.2,0.5,0.5c-0.2,0-0.2,0-0.2,0.2
		C107.2,157.4,107.2,157.1,107.2,156.7z M109.7,154c0.2,0.2,0.5,0.2,0.5,0.5C109.9,154.4,109.7,154.4,109.7,154z M110.4,156.4
		c-0.2-0.2-0.5-0.2-0.5-0.5C110.2,155.8,110.6,156,110.4,156.4z M110,157.6c-0.4,0.2-0.7-0.2-0.7-0.7
		C109.9,156.9,110,157.3,110,157.6z M109.5,155.8c-0.4,0-0.5-0.2-0.5-0.5C109.5,155.1,109.9,155.5,109.5,155.8z M108.8,153.5
		c0.2-0.4,0.4,0,0.5,0.2C109.1,153.8,108.8,153.6,108.8,153.5z M109,156.4c0.2,0.2,0.2,0.4,0.2,0.5c-0.2-0.2-0.5-0.2-0.4-0.5
		C108.8,156.4,109,156.4,109,156.4z M108.2,154.7c0-0.4,0.5,0,0.5,0.2C108.4,154.9,108.4,154.7,108.2,154.7z M108.2,156.2
		c-0.2,0.2-0.7-0.2-0.7-0.5C107.9,155.5,108.2,156,108.2,156.2z M107.9,159.2c-0.4,0-0.7-0.2-0.7-0.7
		C107.7,158.5,107.9,158.7,107.9,159.2z M108.1,160.9c-0.2,0-0.5,0-0.5-0.4C107.9,160.3,108.1,160.5,108.1,160.9z M107.9,157.4
		c0.7-0.2,1.3,0.7,1.8,0.9C109.1,159.6,107.9,158,107.9,157.4z M109.9,159.1c0.2-0.2,0.7,0,0.5,0.4
		C110,159.4,109.7,159.4,109.9,159.1z M110.6,160.7c0,0.2,0,0.2,0,0.4c-0.2,0-0.4-0.2-0.4-0.4C110.2,160.7,110.4,160.7,110.6,160.7z
		 M110.2,152.9c0.4,0,0.4,0.2,0.4,0.4C110.4,153.3,110.2,153.1,110.2,152.9z M111.1,155.1c-0.4,0-0.4-0.2-0.5-0.4
		C110.8,154.5,111.1,154.9,111.1,155.1z M110.8,156.5c0.4,0,0.5,0,0.5,0.4C110.9,156.9,110.8,156.9,110.8,156.5z M150.3,164.3
		c0.5,0.4,0.9,0.9,1.4,1.3c0.4,0.4,1.3,0.5,1.3,1.3c-0.5,0.4-0.9-0.4-1.3-0.5c-2.9-2.2-6.1-4.3-9.7-6c-4-2-8.5-3.4-12.4-5.4
		c0-0.2,0.2-0.2,0.2-0.4c0.2,0,0.2,0,0.4,0C136.9,157.3,144.7,160,150.3,164.3z M129.7,153.8c0-0.2,0-0.4,0-0.5c0.4,0,0.7,0,0.7,0.4
		C130.4,154.2,129.9,153.8,129.7,153.8z M155.1,164.1c0,0.2,0.4-0.2,0.2-0.4c0.5,0.5,1.1,0.9,1.4,1.6c-0.4,0-0.5-0.2-0.7-0.5
		c-2.9-1.6-5.2-3.6-7.9-5.4c-1.4-0.9-2.9-1.6-4.3-2.3c-1.4-0.7-3.1-1.3-4.3-2.2c0.2,0,0-0.2,0.2-0.2c0,0,0.2-0.2,0.4-0.2
		c6,2.2,11,5.4,15.3,9C155.3,163.7,155.1,163.7,155.1,164.1z M161.6,156.7c-0.4-0.5-1.3-0.7-1.4-1.6c0.9-0.2,1.4,1.1,2,1.4
		c0.9,0.7,2,1.3,2.7,2.2c0.5,0.5,1.4,1.4,1.6,2.2c-1.8-1.1-3.2-2.5-4.7-4c0-0.4,0.2-0.2,0.2-0.5C162,156.4,161.8,156.7,161.6,156.7z
		 M169.4,164.8c-0.2,0-0.2,0.2-0.2,0.4c-0.9-0.4-1.4-1.4-2.2-2c0-0.2,0-0.2,0.2-0.4C167.9,163.4,168.7,164.1,169.4,164.8z
		 M167.8,161.8c0.5-0.2,0.7,0.4,0.5,0.7C167.9,162.5,167.8,162.3,167.8,161.8z M172.8,163.2c-0.9-0.5-1.8-1.1-2.3-2
		c0.2,0,0.4-0.2,0.5-0.2C171.4,161.9,172.8,162.3,172.8,163.2z M172.1,160.9c0.5-0.2,0.7,0.4,0.5,0.7
		C172.3,161.4,171.9,161.2,172.1,160.9z M175.3,158.5c0.4,0,0.5,0.4,0.9,0.4c-0.2,0.7,1.3,0.7,1.4,1.8c-0.9-0.2-1.4-0.5-1.6-1.4
		c-0.4,0-0.5,0-0.7-0.2C175.2,158.7,175.3,158.7,175.3,158.5z M175.3,156.9c0.4,0,0.5,0.2,0.5,0.5
		C175.7,157.6,175.2,157.3,175.3,156.9z M179.3,169.5c-0.4,0-0.5-0.2-0.5-0.4C178.9,169.2,179.3,169.2,179.3,169.5z M178.9,163.2
		c0.4,0,0.7,0.4,0.5,0.5C179.1,163.7,179.1,163.4,178.9,163.2z M178.9,170.8c0.4,0.2,0.5-0.2,0.7-0.4c-0.2-0.2-0.2-0.7,0-0.9
		c0.2,0,0.2,0.2,0.4,0.2c-0.2,0.7,0,1.6,0.2,2.5c0,0.7-0.5,1.6-0.2,2.2c0,0.4-0.4,0.2-0.4,0.5c-0.2,0.5,0.2,0.5,0.4,0.9
		c-0.9,0.2-0.7,1.4-0.9,2.2c0.2,0.4,0.9,0.2,0.9,0.5c-0.5,0.2-0.5-0.2-0.9-0.2c-0.2,0.7,0,1.8-0.4,2.5c0,0.4,0.7,0,0.9,0.2
		c0,0.7-0.5,0.2-0.7,0.2c-0.2,0.2,0,0.5-0.4,0.7c0,0.4,0.4,0.2,0.4,0.5c-1.3,0.2-1.6-0.2-2-1.4c-0.4-0.9-0.9-2.3-0.7-2.9
		c0.2-0.5,0.9-0.7,1.3-1.4c0.4-0.5,0.4-1.3,0.7-1.8c0.4-0.9,0.9-1.8,0.5-2.7c0.2-0.2,0.5-0.2,0.7-0.5
		C179.3,171.1,178.9,171.1,178.9,170.8z M180.2,181.4c0.4,0,0.4,0,0.4,0.4C180.4,181.8,180.2,181.8,180.2,181.4z M181.1,183.4
		c-0.4,0-0.5-0.2-0.5-0.4C180.7,183.1,181.1,183.1,181.1,183.4z M180,178.7c0.2-0.2,0.4,0,0.5,0.2C180.6,179.3,180,178.9,180,178.7z
		 M179.3,176.9c0.2-0.4,0.9,0,0.9,0.4C179.7,177.5,179.5,177.1,179.3,176.9z M178.8,186.8c0-0.2-0.2-0.2-0.2-0.4
		c0-0.4,0.4-0.2,0.2-0.5c0.4,0.2,0.7,0.2,0.7,0.7C179.1,186.8,179.1,187,178.8,186.8z M179.1,187.9c-0.2,0-0.4,0-0.5,0
		c0-0.2,0-0.5,0-0.7C178.9,187.2,178.9,187.7,179.1,187.9z M178.9,185.6c-0.2-0.4-0.5-0.4-0.5-0.7c0-0.2,0.2-0.2,0.2-0.4
		c0.2,0,0.2,0.2,0.4,0.2c0,0.2,0,0.4,0,0.5c0.5,0,0.7,0.2,0.9,0.2C179.8,185.8,179.3,185.2,178.9,185.6z M178.8,184
		c0-0.2,0-0.2,0.2-0.4c0.4,0,0.2,0.4,0.5,0.4C179.5,184.1,178.9,184,178.8,184z M179.3,179.6c0.4,0,0.5,0.2,0.7,0.4
		C179.7,180,179.3,180,179.3,179.6z M178.6,191.7c-0.4,0-0.5,0-0.5-0.4C178.4,191.5,178.6,191.5,178.6,191.7z M178.6,190.3
		c0.2-0.2,0.7,0,0.5,0.5C178.9,190.6,178.4,190.6,178.6,190.3z M176.8,192.6c-0.2,0-0.2-0.2-0.2-0.4c0.4-0.2,0.7,0,0.9,0.4H176.8z
		 M166.9,168.3c0-0.2,0-0.2,0-0.4c0.7,0.2,1.1,0.7,1.4,1.4c-0.4,0-0.4-0.2-0.7-0.2C167.9,168.4,167.2,168.6,166.9,168.3z
		 M167.6,170.1c-0.4,0-0.4,0-0.4-0.4C167.4,169.7,167.6,169.9,167.6,170.1z M162.2,165.6c0-0.2,0-0.2,0.2-0.4
		c0.5,0.2,1.4,0.9,1.1,1.4c-0.4,0-0.4-0.4-0.4-0.7C162.5,165.9,162.3,165.7,162.2,165.6z M162.9,167.5c-0.4,0-0.4-0.2-0.5-0.5
		C162.5,166.8,163.1,167.4,162.9,167.5z M163.6,168.3c-0.4,0-0.4-0.2-0.4-0.4C163.6,167.9,163.6,167.9,163.6,168.3z M163.4,165
		c0.2,0,0.2-0.2,0.2-0.4c0.7,0.4,1.3,0.7,1.4,1.6c0.4,0,0.5,0,0.7,0.2c0,0.2,0,0.5-0.2,0.7C164.7,166.6,164.2,165.7,163.4,165z
		 M165.4,168.3c0.2-0.2,0.5,0,0.5,0.5C165.6,168.8,165.4,168.6,165.4,168.3z M165.6,183.4c-0.2,0-0.4-0.2-0.4-0.4
		C165.6,182.9,165.8,183.1,165.6,183.4z M164.9,182.7c-0.4,0-0.5-0.2-0.5-0.4C164.5,182.1,164.9,182.3,164.9,182.7z M164.5,167.4
		c0.4,0,0.7,0.4,0.5,0.7C164.7,168.1,164.3,167.7,164.5,167.4z M164.9,169.3C165.6,169.5,164.9,170.2,164.9,169.3L164.9,169.3z
		 M163.8,166.6c0.4,0,0.5,0.2,0.5,0.5c-0.2,0-0.2,0.2-0.4,0.2C163.8,167.2,163.6,166.8,163.8,166.6z M164.3,169
		c-0.4,0-0.4-0.2-0.5-0.5C164.2,168.4,164.5,168.6,164.3,169z M166.1,167c0.4,0,0.7,0.2,0.5,0.7C166.1,167.7,166,167.5,166.1,167z
		 M166.7,169.5c-0.2-0.2-0.5-0.2-0.4-0.5C166.5,169,166.7,169.2,166.7,169.5z M166.7,182.3c0.4,0,0.4,0,0.4,0.4
		C166.9,182.7,166.7,182.7,166.7,182.3z M168.3,167.4c-1.6-0.7-2.9-2-4-3.2c0-0.2,0.2-0.2,0.2-0.4c0.9,0.4,1.4,1.1,2.2,1.6
		c0,0.2,0,0.5-0.2,0.5c0.2,0.2,0.4-0.2,0.5,0c0.7,1.1,2,1.6,2.5,2.7C169,168.8,168.5,168.1,168.3,167.4z M164.7,160.5
		c0.4,0,0.5,0.2,0.5,0.7C164.7,161.2,164.5,160.9,164.7,160.5z M165.4,163.2c-0.4,0-0.7-0.4-0.5-0.7
		C165.2,162.5,165.6,162.8,165.4,163.2z M166,161.9c-0.2,0.2-0.5-0.2-0.5-0.5C166,161.4,166.1,161.8,166,161.9z M166.1,164.1
		c-0.4-0.2-0.7-0.5-0.4-0.9C166.1,163.2,166.5,163.7,166.1,164.1z M168.1,166.1c0.2-0.2,0.2-0.5,0.5-0.5c0.2,0.4,0.4,0.5,0,0.7
		C168.5,166.3,168.3,166.3,168.1,166.1z M169,166.3c0.5,0,0.5,0.7-0.2,0.7C168.8,166.6,168.8,166.5,169,166.3z M177.9,167.2
		c-0.2,0-0.5-0.2-0.5-0.5C177.9,166.6,178,167,177.9,167.2z M178,168.8c-0.2,0-0.4,0-0.4-0.4C178,168.4,178.2,168.4,178,168.8z
		 M177.1,165c0.4,0,0.5,0.2,0.5,0.5C177.5,165.6,177.1,165.4,177.1,165z M177.1,163.4c0.4,0,0.5,0.2,0.5,0.5
		C177.3,163.9,177.1,163.7,177.1,163.4z M177.1,168.3c-0.4,0-0.4-0.2-0.4-0.5C177,167.9,177.3,167.9,177.1,168.3z M177,189.9
		c-0.4,0-0.4,0-0.4-0.4C176.8,189.5,177.1,189.5,177,189.9z M176.6,186.7c0.2,0,0.4,0.2,0.4,0.4C176.6,187,176.6,186.8,176.6,186.7z
		 M175.9,182.3c0.4-0.4,1.3,0.2,1.6,0.7C177,183.1,176.6,182.5,175.9,182.3z M175.3,161.9c0.4,0,0.7,0,0.5,0.5
		C175.5,162.5,175.3,162.5,175.3,161.9z M175.9,164.1c-0.4,0-0.4-0.2-0.4-0.5C175.9,163.7,176.2,163.9,175.9,164.1z M175.5,167
		c-0.4,0-0.4-0.2-0.4-0.4C175.3,166.6,175.5,166.6,175.5,167z M175.7,168.8c-0.4,0-0.4-0.2-0.5-0.4
		C175.3,168.1,175.9,168.3,175.7,168.8z M175.7,165.4c0.4,0,0.4,0.2,0.5,0.5C175.9,165.9,175.7,165.9,175.7,165.4z M176.4,167.5
		c-0.4,0-0.5-0.2-0.5-0.4C176.2,167.2,176.2,167.4,176.4,167.5z M176.2,168.8c0.2,0.2,0.4,0,0.4,0.4
		C176.2,169.2,176.1,169.2,176.2,168.8z M176.4,164.3c0.4,0,0.7,0.4,0.5,0.5C176.6,164.8,176.2,164.8,176.4,164.3z M177,171
		c0,0.2-0.5,0-0.5-0.4C176.8,170.6,176.8,171,177,171z M176.6,166.1c0.2,0,0.2,0,0.4,0C177.3,166.6,176.6,166.6,176.6,166.1z
		 M176.2,162.7c0.2-0.2,0.5,0.2,0.7,0.4C176.8,163.4,176.1,163.2,176.2,162.7z M176.4,161.6c-0.2-0.2,0-0.5-0.2-0.5
		c-0.5,0.2-0.7-0.2-0.9-0.4c0-0.2,0.4-0.2,0.4-0.5c0.5,0.4,0.7,0.9,1.3,1.3C176.8,161.6,176.6,161.6,176.4,161.6z M175.3,165.2
		c-0.2,0-0.4,0-0.5-0.2c0-0.2,0-0.2,0.2-0.4C175.2,164.8,175.3,165,175.3,165.2z M175.2,169.9c-0.4,0-0.7,0-0.7-0.5
		C174.8,169.2,175.2,169.3,175.2,169.9z M174.6,174c0.2,0,0.4,0.2,0.4,0.4C174.8,174.4,174.6,174.2,174.6,174z M174.8,180.3
		c-0.2-0.2-0.5-0.2-0.5-0.5C174.6,180,175,180,174.8,180.3z M174.3,172.2c0.4,0,0.5,0.2,0.4,0.4
		C174.3,172.6,174.3,172.4,174.3,172.2z M174.4,167.5c0.4,0,0.5,0.2,0.4,0.5C174.4,168.1,174.4,167.9,174.4,167.5z M174.4,171
		c-0.7-0.2-1.4-0.4-1.4-1.3C173.9,169.7,174.6,170.2,174.4,171z M173.9,172c-0.4,0-0.5-0.2-0.5-0.5
		C173.7,171.7,173.9,171.9,173.9,172z M171.5,171.9c-0.2,0-0.5,0-0.4-0.4C171.5,171.5,171.5,171.7,171.5,171.9z M170.8,169.7
		c0.4-0.2,0.9,0.4,0.5,0.7C170.8,170.2,170.8,170.1,170.8,169.7z M171.2,166.5c0.4,0,0.5,0.4,0.5,0.7
		C171.2,167.4,170.8,166.8,171.2,166.5z M171.9,169.2c-0.2,0-0.2-0.4-0.4-0.4C171.7,168.6,172.3,169,171.9,169.2z M172.5,169.3
		c0.4,0,0.4,0,0.4,0.4C172.5,169.7,172.5,169.5,172.5,169.3z M173,171.3c-0.2,0.2-0.4-0.2-0.5-0.4C172.5,170.8,173,171.1,173,171.3z
		 M172.1,167.4c0.4,0,0.7,0,0.5,0.5C172.3,167.9,172.1,167.7,172.1,167.4z M173.2,173.1c-0.5-0.2-1.1-0.5-1.3-0.9
		C172.3,172.2,173,172.6,173.2,173.1z M173.5,168.6c0.4,0,0.5,0.2,0.7,0.4C174.1,169.3,173.5,169,173.5,168.6z M173.4,167
		c0.2-0.4,0.9-0.2,0.9,0.4C173.9,167.5,173.5,167.4,173.4,167z M173.4,165.2c0.4,0,0.4,0.2,0.4,0.5
		C173.5,165.6,173.2,165.4,173.4,165.2z M173.5,168.6c-0.4,0-0.5-0.2-0.5-0.4C173.2,168.3,173.5,168.3,173.5,168.6z M171.9,165.9
		c0.5-0.5,1.1,0.4,1.4,0.7C172.6,166.8,172.5,165.9,171.9,165.9z M172.1,164.3c-0.4,0-0.5-0.2-0.5-0.5
		C171.7,163.6,172.3,164.1,172.1,164.3z M171.7,165.6c-0.4-0.2-1.1-0.5-0.7-0.9C171.4,164.8,171.7,165,171.7,165.6z M170.8,162.8
		c0.4,0,0.5,0.2,0.5,0.5C170.8,163.6,170.6,163.2,170.8,162.8z M170.8,164.3c0,0.2-0.2,0.2-0.4,0.4c-0.2-0.2-0.5-0.2-0.5-0.5
		C170.3,163.9,170.6,164.3,170.8,164.3z M170.8,166.5c-0.4,0.2-0.7,0-0.7-0.4C170.5,165.7,170.8,165.9,170.8,166.5z M171.2,168.4
		c-0.4-0.2-0.7-0.2-0.7-0.9c-0.4,0-0.9,0-1.1-0.2c0-0.4,0.4-0.4,0.4-0.7C170.5,167.2,171.2,167.5,171.2,168.4z M170.6,171.1
		c-0.4-0.4-0.9-0.7-1.3-1.3C169.9,169.9,171,170.6,170.6,171.1z M169.9,169c0.2,0,0.4,0,0.5,0.2c0,0.2,0,0.2,0,0.4
		C170.1,169.3,169.9,169.3,169.9,169z M169,169.7c-0.2,0-0.2,0-0.4,0C168.5,169.3,169,169.3,169,169.7z M170.8,178.7
		c0,0.4,0,0.5-0.2,0.7c-0.5-0.5-1.4-0.9-1.8-1.6C169.7,177.8,170.1,178.5,170.8,178.7z M170.6,178c0-0.7,0.9-0.2,0.5,0.2
		C171,178.2,170.8,178,170.6,178z M171.5,179.8c-0.2,0-0.5-0.2-0.5-0.5C171.4,179.1,171.9,179.4,171.5,179.8z M171.4,173.3
		c0.4,0,0.5,0.2,0.5,0.4C171.7,173.9,171.4,173.7,171.4,173.3z M172.1,178.5c-0.4,0-0.5-0.2-0.5-0.5
		C171.9,178.2,172.3,178.2,172.1,178.5z M172.5,180.3c-0.4,0-0.5-0.2-0.5-0.5C172.3,179.8,172.6,180,172.5,180.3z M172.3,174
		c0.2-0.2,0.4,0.2,0.5,0.2c0,0.2-0.2,0-0.2,0.2C172.3,174.4,172.5,174,172.3,174z M173,179.1c-0.2,0-0.5,0-0.5-0.4
		C172.8,178.7,173,178.7,173,179.1z M173.4,180.9c-0.4,0-0.4-0.2-0.5-0.2C173,180.2,173.5,180.5,173.4,180.9z M173.5,183.6
		c0,0.4-0.5,0.2-0.5-0.2C173.4,183.6,173.5,183.6,173.5,183.6z M173.5,179.3c0.4,0,0.4,0.2,0.5,0.2
		C173.9,179.8,173.4,179.6,173.5,179.3z M174.4,181.4c-0.2-0.2-0.5-0.2-0.5-0.5C174.3,181.1,174.4,181.2,174.4,181.4z M174.6,184.5
		c-0.2,0.2-0.4-0.2-0.5-0.4C174.1,184,174.8,184.1,174.6,184.5z M175,185.9c0,0.2-0.5,0.2-0.5-0.2
		C174.8,185.8,174.8,185.9,175,185.9z M175.2,188.8c-0.4,0-0.4-0.2-0.5-0.2C174.6,188.5,175.2,188.5,175.2,188.8z M175,184.5
		c0.2-0.2,0.4-0.2,0.5-0.2c0,0.2,0,0.5-0.2,0.5c-0.2,0-0.2,0-0.4,0C175,184.9,175,184.7,175,184.5z M175.3,183.6
		c0.2-0.5,0.7,0,0.4,0.4C175.5,183.8,175.5,183.6,175.3,183.6z M175.9,184.9c0.2,0.2,0.5,0.2,0.5,0.5
		C176.2,185.6,175.5,185.2,175.9,184.9z M176.6,190.8c0,0.4-0.7,0.2-0.5-0.2C176.1,190.4,176.4,190.6,176.6,190.8z M175.9,191.7
		c0.4-0.2,0.2,0.5,0.2,0.5C175.9,192.4,176.1,191.9,175.9,191.7z M177.1,191.2c0.2-0.2,0.5,0,0.5,0.4
		C177.3,191.5,177.1,191.3,177.1,191.2z M177.3,187.2c0.2-0.4,0.7-0.2,0.7,0.2C177.7,187.6,177.5,187.4,177.3,187.2z M177.5,184.5
		c0-0.2,0.2,0,0.4-0.2c0,0.2,0,0.2,0.2,0.2C177.9,184.9,177.7,184.5,177.5,184.5z M178,164.1c0.2-0.2,0.4,0.2,0.5,0.4
		C178.6,164.7,178,164.5,178,164.1z M178.8,161.4c-0.4,0.2-0.7-0.2-0.7-0.5C178.4,160.9,178.6,161,178.8,161.4z M178,159.2
		c0.4,0.2,0.5,0.4,0.7,0.7C178.2,160.1,177.9,159.4,178,159.2z M178.8,163c-0.9,0-1.1-0.7-1.6-1.3
		C177.9,161.9,178.2,162.7,178.8,163z M177,156.9c0.2-0.2,0.7,0.2,0.7,0.5C177.5,157.8,176.8,157.1,177,156.9z M177.7,159.1
		c-0.4,0-0.5-0.4-0.7-0.5C177.3,158.3,177.7,158.7,177.7,159.1z M175.2,163.6c-0.4,0-0.5-0.4-0.4-0.5
		C175.2,163,175.3,163.4,175.2,163.6z M174.6,161.4c0.4-0.2,0.4,0,0.5,0.2C175.2,161.9,174.6,161.8,174.6,161.4z M174.6,166.3
		c-0.2,0.2-0.7-0.2-0.4-0.5C174.4,165.9,174.8,165.9,174.6,166.3z M173.9,163.9c0.4,0.2,0.7,0.2,0.7,0.5
		C174.3,164.8,173.7,164.1,173.9,163.9z M173.7,162.3c0.4,0,0.5,0.2,0.5,0.5C174.3,163,173.7,162.7,173.7,162.3z M173.7,160.9
		c0.2-0.4,0.7-0.2,0.5,0.4C173.9,161.2,173.9,161,173.7,160.9z M173.7,163.9c-0.2,0.2-0.7-0.2-0.7-0.5
		C173.4,163.2,173.5,163.7,173.7,163.9z M173,161.6c0.4,0,0.7,0.2,0.5,0.5C173.2,162.1,173,162.1,173,161.6z M173.5,160.5
		c-0.4,0-0.5-0.2-0.5-0.5C173.4,159.6,173.7,160.3,173.5,160.5z M173,165c-0.4,0-0.7-0.2-0.5-0.5C172.6,164.5,173,164.5,173,165z
		 M170.6,162.7c-0.2,0-0.2,0-0.2,0.2c-0.4,0-0.5-0.2-0.5-0.7C170.3,161.9,170.6,162.3,170.6,162.7z M170.1,165.9
		c-0.5,0-0.9-0.5-0.5-0.9C169.9,165,170.1,165.4,170.1,165.9z M169.7,164.1c-0.4,0-0.7-0.4-0.5-0.7c0.4,0,0.4,0.2,0.5,0.2
		C169.9,163.7,169.9,163.9,169.7,164.1z M169.6,162.1c-1.1-0.2,0-1.4,0.2-0.2C169.7,162.1,169.6,162.1,169.6,162.1z M169.4,163.2
		c-0.4,0.2-0.4,0-0.7-0.2c0-0.2,0-0.5,0.2-0.5C169,162.7,169.2,162.8,169.4,163.2z M168.5,160.7c0.4,0,0.5,0.2,0.5,0.5
		C168.7,161.6,168.1,161,168.5,160.7z M166.9,161c0.4,0,0.5,0.2,0.5,0.5C167.2,161.9,166.9,161.6,166.9,161z M168.3,165.6
		c-0.5,0.4-2.3-0.7-1.6-1.6C167.2,164.5,167.9,164.8,168.3,165.6z M166.7,162.8c-0.4,0-0.7-0.4-0.5-0.7
		C166.7,162.1,167,162.7,166.7,162.8z M164,161.8c0.4-0.2,0.7,0.2,0.5,0.7C164.2,162.3,164,162.1,164,161.8z M164,163.6
		c-0.4,0-0.5-0.4-0.5-0.7C163.8,162.8,164,163.2,164,163.6z M163.6,161.4c-0.2,0.2-0.5-0.2-0.5-0.5
		C163.4,160.9,163.8,161.2,163.6,161.4z M163.3,164.8c-0.2-0.2-0.5-0.4-0.4-0.7C163.3,164.1,163.4,164.5,163.3,164.8z M162.5,161.9
		c0.4,0,0.5,0.2,0.5,0.5C162.7,162.7,162.3,162.3,162.5,161.9z M162.5,163.7c-0.4,0-0.5-0.2-0.5-0.4
		C162.3,163.4,162.5,163.6,162.5,163.7z M161.8,175.1c-0.2,0.2-0.4,0-0.5-0.2c0-0.2,0.2-0.2,0.2-0.4
		C161.6,174.8,161.8,174.9,161.8,175.1z M161.6,164.5c0.2,0.2,0.4,0.2,0.4,0.5C161.6,164.8,161.3,164.7,161.6,164.5z M161.6,166.3
		c0.4,0,0.5,0.2,0.5,0.5C161.8,166.8,161.4,166.6,161.6,166.3z M162.2,161.8c-0.2,0.2-0.5-0.2-0.5-0.5
		C161.8,161,162.3,161.6,162.2,161.8z M161.8,162.8c-0.4,0.4-0.9-0.4-0.7-0.5C161.4,162.3,161.4,162.7,161.8,162.8z M161.4,167.9
		c-0.2,0-0.4-0.2-0.4-0.4C161.3,167.5,161.4,167.5,161.4,167.9z M161.1,174.6c-0.2-0.2-0.5-0.4-0.4-0.5
		C161.1,174,161.1,174.2,161.1,174.6z M160.5,163.6c0.4,0,0.5,0.2,0.5,0.5C160.7,164.1,160.5,163.9,160.5,163.6z M160.7,175.3
		c0,0.2-0.2,0.2-0.2,0.5c-0.9,0-1.1-0.5-1.3-1.3C160,174.8,160.2,175.1,160.7,175.3z M159.5,175.8c0,0.2,0,0.2-0.2,0.4
		c-0.2,0-0.4-0.2-0.4-0.4C159.1,175.8,159.3,175.8,159.5,175.8z M159.1,172.4C159.8,172.6,159.1,173.3,159.1,172.4L159.1,172.4z
		 M159.3,165.9c0.4,0,0.5,0.2,0.5,0.4C159.5,166.3,159.3,166.3,159.3,165.9z M159.8,164.8c0.4,0,0.4,0.2,0.5,0.4
		C160.4,165.4,159.8,165,159.8,164.8z M159.5,163c0-0.2,0.2-0.2,0.2-0.4c0.4,0.2,0.5,0.4,0.5,0.7C159.8,163.4,159.6,163,159.5,163z
		 M159.5,164.5c-0.4-0.2-0.5-0.4-0.5-0.7C159.3,163.9,159.8,164.1,159.5,164.5z M158.9,165.6c-0.4,0-0.5-0.2-0.5-0.5
		C158.6,164.8,159.1,165.4,158.9,165.6z M158.4,166.6c-0.2,0.2-0.5,0-0.5-0.4C158.2,166.3,158.4,166.5,158.4,166.6z M157.5,164.3
		c0.2-0.2,0.7,0.2,0.5,0.5C157.7,164.8,157.5,164.7,157.5,164.3z M158,168.1c-0.4,0-0.4-0.2-0.5-0.5
		C157.7,167.7,157.8,167.7,158,168.1z M157.1,165.6c0.4,0,0.4,0.2,0.4,0.5C157.3,165.9,156.9,165.7,157.1,165.6z M157.3,169.2
		c-0.4,0-0.4,0-0.4-0.4C157.1,169,157.3,168.8,157.3,169.2z M156.4,167c0-0.4,0.5,0,0.5,0.4C156.8,167.4,156.8,167,156.4,167z
		 M157.3,164.1c-0.4,0-0.5-0.2-0.5-0.7C157.1,163.6,157.5,163.7,157.3,164.1z M156.4,168.4c-0.4,0.2-0.2-0.4-0.5-0.4
		C156,167.9,156.6,168.1,156.4,168.4z M155.9,165.9c0.2,0.2,0.5,0.4,0.4,0.5C155.9,166.5,155.5,166.1,155.9,165.9z M155,165.2
		c0.4,0,0.5,0.2,0.5,0.5C155.1,165.9,154.6,165.6,155,165.2z M155.1,169c-0.4,0-0.4-0.2-0.4-0.5C155,168.6,155.1,168.6,155.1,169z
		 M155.7,167.7c-0.4,0-0.5-0.2-0.5-0.5C155.5,167.2,155.7,167.4,155.7,167.7z M153.1,163.4c0.5,0.5,1.4,1.1,1.4,1.8
		c-1.6-0.5-2.7-1.8-4-2.7c-1.4-0.9-2.7-1.8-4.1-2.7c-2.9-1.8-6.3-2.9-9.4-4.5c0-0.2,0.2-0.2,0.2-0.4
		C143,156.7,148.6,160,153.1,163.4z M155,166.8c-0.5,0.2-1.1-0.2-1.4-0.5c-1.3-0.9-2.3-2-3.8-2.9c-5.1-3.6-11.4-6.3-17.9-8.5
		c-0.2-0.4-0.7-0.4-1.3-0.7c0-0.2,0.2-0.2,0.2-0.4l0.2-0.2C140,156.7,148.8,160.5,155,166.8z M154.2,168.3c-0.4,0-0.5-0.2-0.5-0.5
		C154.2,167.7,154.4,167.9,154.2,168.3z M152.6,168.3c0.4,0,0.5,0.2,0.5,0.5C152.6,168.8,152.4,168.4,152.6,168.3z M152.6,169.9
		c-0.4,0-0.5-0.2-0.5-0.5C152.2,169.5,152.6,169.5,152.6,169.9z M153,167c0.4,0,0.5,0.2,0.5,0.5C153.1,167.5,153,167.4,153,167z
		 M153.9,169.3c-0.4,0-0.5-0.2-0.5-0.5C153.7,169,153.9,169.2,153.9,169.3z M151.3,166.8c0,0.2,0.4,0.2,0.2,0.5
		c0.4,0,0.9,0.4,0.7,0.7c-0.4-0.2-1.4-0.5-1.3-1.3c-0.4,0-0.4,0.2-0.5,0.2c0-0.2-0.4-0.2-0.4-0.5c-0.2,0-0.4,0-0.5,0
		c-6.1-4.7-14.3-7.4-21.8-10.6c0-0.2,0.2-0.2,0.2-0.4l0.2-0.2C136.6,158.2,145,161.4,151.3,166.8z M149.5,169.3
		c-0.4,0-0.7-0.4-0.4-0.7c0.2,0.2,0.5,0.2,0.7,0.4C149.9,169.2,149.5,169.2,149.5,169.3z M149.7,171c-0.2-0.2-0.5-0.2-0.4-0.5
		C149.7,170.6,149.9,170.8,149.7,171z M131.7,178.7c-0.2-0.2-0.7,0-0.7-0.5C131.3,178.2,131.7,178.4,131.7,178.7z M131,169.9
		c0.2,0,0.4,0,0.5,0.2C131.3,170.2,131,170.2,131,169.9z M130.6,168.4c0.7,0,0.9,0.5,1.6,0.5C131.7,169.3,130.8,168.8,130.6,168.4z
		 M124.1,176.7c1.1,0.2,1.8,0.5,2.5,0.9C126.1,177.8,124.6,177.1,124.1,176.7z M126.1,178.7c0,0.4-0.9,0.2-0.7-0.2
		C125.7,178.4,125.9,178.7,126.1,178.7z M118.7,169.3c0.2-0.2,0.4,0.2,0.7,0.2C119.6,169.9,118.5,169.5,118.7,169.3z M119.4,175.1
		c-0.2,0-0.4-0.2-0.5-0.2C118.9,174.6,119.6,174.6,119.4,175.1z M118.7,175.8c0,0.4-0.7,0.4-0.5-0.2
		C118.5,175.7,118.5,175.8,118.7,175.8z M114.7,163.2c0.5,0.4,1.3,0.4,1.8,0.9C115.8,164.3,114.9,163.7,114.7,163.2z M115.6,165.2
		c-0.4,0-0.5-0.2-0.7-0.4C114.9,164.7,115.6,164.8,115.6,165.2z M114.5,160.3c-0.4,0-0.4-0.2-0.5-0.2
		C114,159.8,114.5,160,114.5,160.3z M113.6,158.5c0-0.4,0.7,0,0.5,0.4C113.8,158.7,113.6,158.7,113.6,158.5z M125.4,158.2
		c0,0.2,0,0.5-0.2,0.5c-0.5,0-0.9-0.2-0.9-0.5c-0.4,0.2-0.5,0-0.9-0.2c0-0.2,0-0.4,0.2-0.5C124.3,157.6,124.6,158,125.4,158.2z
		 M123.9,156.4c0.4,0,0.7,0,0.7,0.5C124.3,157.1,123.9,156.9,123.9,156.4z M147,170.1c-0.2,0,0,0.2-0.2,0.2c-0.4,0-0.7-0.4-0.5-0.7
		C146.7,169.7,147,169.7,147,170.1z M146.8,168.4c0.4,0.2,0.7,0.2,0.5,0.7C146.8,169.2,146.7,168.8,146.8,168.4z M146.3,168.4
		c-0.4-0.2-0.5-0.2-0.5-0.5C146.1,167.5,146.7,168.1,146.3,168.4z M145.4,169.5c0-0.2,0.2-0.2,0.2-0.4c0.4,0,0.7,0.2,0.7,0.5
		c0,0-0.2,0-0.2,0.2C145.6,169.7,145.6,169.5,145.4,169.5z M145.6,170.8c-0.4,0.2-0.7,0-0.5-0.5
		C145.4,170.2,145.6,170.4,145.6,170.8z M145.2,167.9c-0.4-0.2-0.4-0.2-0.4-0.7c-0.2-0.2-0.4,0.2-0.9,0.2
		c-5.2-3.4-11.7-5.6-17.9-8.1c0-0.4,0.4-0.4,0.4-0.5c0.4,0,0.5,0.2,0.7,0.5c0.2,0,0.4-0.2,0.5-0.2c6.1,2.5,12.8,4.5,17.7,8.5
		c0.2,0,0.2,0.2,0.2,0.4C145.6,167.7,145.6,168.1,145.2,167.9z M126.1,159.1c-0.4,0-0.5,0-0.7-0.2c0-0.2,0.2-0.4,0.2-0.5
		c0.2,0.2,0.5,0,0.5,0.2S126.1,158.9,126.1,159.1z M127.9,158c0.4,0,0.5,0.2,0.5,0.5C128.1,158.5,127.7,158.3,127.9,158z M125.4,156
		c0-0.2,0.2-0.2,0.2-0.4c1.4,0.2,3.1,1.1,4.5,1.6c0,0.5-0.9,0.2-0.7-0.2C127.7,157.6,126.6,156.5,125.4,156z M125.7,157.3
		c0.5-0.4,1.6,0,1.8,0.7c-0.7-0.2-1.8-0.4-2.5-0.7C124.8,156.5,125.7,156.9,125.7,157.3z M124.8,159.2c0,0.2-0.2,0.4,0,0.5
		c0.4,0,0.2-0.4,0.5-0.2c5.6,2,11,4,15.9,6.5c1.1,1.1,3.1,1.4,3.8,2.9c-0.7-0.4-2.2-0.7-2.7-1.6c-1.3-0.2-2-0.9-2.9-1.6
		c-0.2,0-0.2,0.2-0.4,0.4c-4.5-2.3-10.1-4.1-14.6-6.3c-0.7-0.2-1.3-0.5-1.8-0.7C123.4,158.3,123.9,159.4,124.8,159.2z M140.3,170.8
		c-0.2-0.4,0-0.2,0-0.5c0.7,0.4,1.3,0.4,1.6,1.1C141.4,171.9,141.1,170.8,140.3,170.8z M141.2,172.6c-0.4,0-0.5-0.2-0.7-0.5
		C140.9,171.9,141.2,172,141.2,172.6z M138.7,171c0.5,0.4,1.3,0.5,1.6,1.1C140,171.9,138.5,171.5,138.7,171z M139.8,173.1
		c-0.2,0.2-0.5-0.2-0.5-0.4C139.6,172.6,139.8,172.8,139.8,173.1z M133.5,171c0,0.2-0.4,0-0.5,0C133.1,170.6,133.3,171,133.5,171z
		 M132.2,169c0.4,0,0.7,0.2,0.9,0.4C133.1,170.1,132.2,169.5,132.2,169z M132.9,168.4c0-0.4,0.2-0.2,0.2-0.5c0.4,0,0.5,0.2,0.7,0.4
		C133.7,169,133.5,168.6,132.9,168.4z M134.2,170.1c-0.2,0.2-0.7,0-0.7-0.4C133.7,169.5,134.2,169.7,134.2,170.1z M134.4,171.7
		c-0.2,0-0.5,0-0.5-0.4C134.2,171.3,134.4,171.5,134.4,171.7z M134,168.8c0-0.2,0.2-0.2,0.2-0.5c0.4,0.2,0.7,0.2,0.7,0.4
		C134.7,169.3,134.4,169,134,168.8z M135.1,170.6c-0.4,0-0.5,0-0.5-0.4C134.7,170.1,135.1,170.2,135.1,170.6z M134.4,167.5
		c-0.5,0.2-0.9,0-1.1-0.5c-0.9-0.2-2.5-0.4-2.9-1.3c-0.4,0.2-0.7,0-0.9-0.2c0-0.2,0.2-0.2,0.2-0.4c2.2,0.5,4,1.4,5.6,2.3
		c0,0.4-0.4,0.2-0.2,0.5C134.9,167.9,134.4,168.1,134.4,167.5z M128.6,164.1c-1.3-0.4-2.5-0.9-3.6-1.6c0-0.2,0-0.2,0-0.4
		c0.5,0,0.9,0,0.9,0.5c3.1,0.5,6,2,8.8,3.1c0,0.2-0.2,0.4-0.2,0.7c-0.4,0-0.7-0.2-0.5-0.5c-1.8,0.2-3.2-1.1-5.1-1.6
		c-0.2-0.2,0-0.2,0-0.5C128.8,163.7,128.8,164.1,128.6,164.1z M121.4,165.2c0-0.2,0.2-0.2,0.2-0.4c1.4,0.7,4,1.1,4.7,2.2
		C124.3,166.5,122.5,166.1,121.4,165.2z M125.5,167.7c0,0.4-0.7,0.2-0.5-0.2C125.4,167.5,125.4,167.7,125.5,167.7z M123.4,177.6
		c0.4,0,0.5,0.2,0.5,0.4C123.6,178,123.4,178,123.4,177.6z M124.6,192.3c-0.4,0.2-0.5,0-0.9-0.2
		C123.7,191.3,124.5,191.9,124.6,192.3z M123.4,168.6c0-0.2,0-0.2,0-0.4c0.2,0,0.5,0,0.5,0.4C123.7,168.6,123.6,168.6,123.4,168.6z
		 M122.7,166.8c-0.5,0.2-0.5,0.2-1.1,0c0-0.2,0-0.4,0-0.5c1.1,0.4,2.3,0.5,3.1,1.4C123.9,167.7,123,167.4,122.7,166.8z M123.4,191.5
		c-0.2,0.2-0.5,0-0.5-0.4C123,191.2,123.4,191.2,123.4,191.5z M122.8,168.4c-0.4,0-0.4-0.2-0.7-0.2c0-0.2,0-0.4,0.2-0.5
		C122.5,167.9,123,167.9,122.8,168.4z M118.3,162.5c-0.4,0-0.5,0-0.5-0.4C118.2,161.9,118.5,162.1,118.3,162.5z M117.4,160.7
		c0-0.5,0.7-0.5,0.7,0.2C118,161,117.6,160.9,117.4,160.7z M118,159.6c0-0.2,0.2-0.2,0.2-0.4c0.4,0,0.5,0.2,0.7,0.4
		C118.7,160,118.2,159.8,118,159.6z M119.4,161.6c0-0.4,0.4-0.2,0.5,0C120,161.8,119.6,161.6,119.4,161.6z M120,164.1
		c0,0.2-0.2,0.2-0.2,0.5c-0.4,0-0.5-0.2-0.5-0.5C119.4,163.7,119.6,164.1,120,164.1z M119.1,159.8c0.4,0,0.7,0,0.5,0.4
		C119.4,160.3,118.9,160.1,119.1,159.8z M118.5,158.5c0-0.2,0-0.4,0-0.5c0.4,0.2,0.7,0.4,0.7,0.7
		C119.1,158.7,118.9,158.5,118.5,158.5z M118.5,160.9c0.4,0,0.2,0.2,0.5,0.4c0,0.4-0.2,0-0.5,0.2C118.5,161,118.5,161,118.5,160.9z
		 M119.4,165.2c0,0.4-0.2,0.2-0.2,0.5c-0.4,0-0.4-0.4-0.7-0.4C118.7,165,119.1,165.2,119.4,165.2z M119.8,167c0,0.5-0.9,0.2-0.9,0
		C119.1,166.5,119.6,166.6,119.8,167z M119.6,165.9c0-0.5,0.9-0.4,0.9,0.2C120,166.1,119.8,165.9,119.6,165.9z M120.1,164.8
		c0-0.2,0-0.2,0-0.4c0.2-0.2,0.9,0,0.7,0.4C120.7,165,120.5,164.8,120.1,164.8z M120.7,166.1c0.2-0.2,0.5,0,0.7,0.2
		C121.6,166.6,120.5,166.5,120.7,166.1z M121.9,167.5c0,0.2-0.2,0.4-0.2,0.5c-0.2,0-0.4-0.4-0.5-0.4
		C121.2,167.4,121.6,167.4,121.9,167.5z M120.9,163.4c0.2-0.2,0.5,0,0.7,0.2C121.6,164.1,120.7,163.7,120.9,163.4z M121.4,162.7
		c0-0.2,0-0.4,0.2-0.5c0.4,0,0.7,0.2,0.7,0.5c-0.2,0-0.2,0.2-0.2,0.4C121.9,162.8,121.8,162.7,121.4,162.7z M122.7,161.2
		c0,0.4-0.2,0.2-0.2,0.5c-0.5,0-0.9-0.2-0.5-0.7C122.3,161,122.3,161.2,122.7,161.2z M122.5,160.3c0-0.5,0.7-0.4,0.9-0.2
		c0,0-0.2,0.2-0.2,0.4C122.8,160.7,122.7,160.3,122.5,160.3z M123.2,162.8c0,0.2-0.2,0.2-0.2,0.4c-0.4,0-0.5-0.2-0.7-0.4
		C122.3,162.3,123,162.5,123.2,162.8z M123,161.9c0-0.2,0-0.4,0-0.5c0.4,0,0.5,0.2,0.7,0.4C123.7,162.3,123.2,162.1,123,161.9z
		 M123.6,160.3c0.4,0,0.4,0.2,0.7,0.2c0,0.7-0.5,0.5-0.9,0.4C123.2,160.5,123.6,160.5,123.6,160.3z M123.6,162.8
		c0.4,0,0.5,0.4,0.7,0.4c0,0.5-0.5,0.4-0.9,0.2C123.4,163.2,123.6,163,123.6,162.8z M123.9,162.1c0-0.4,0.7-0.4,0.7-0.2
		C124.8,162.7,124.1,162.3,123.9,162.1z M141.2,167.5c0,0.2-0.2,0.2-0.2,0.4c0.7,0,2,0.4,1.6,1.3c-0.4,0-0.5-0.2-0.5-0.5
		c-0.5,0.4-1.3-0.5-1.8-0.9c-0.7,0.2-1.4-0.5-2-0.9c-0.9,0.2-2.3-1.1-3.8-1.6c-2.5-0.9-4.9-1.8-7-2.7c0,0-0.2-0.2-0.2-0.4
		c-0.7,0.5-1.3-0.5-2.2-0.5c0-0.2,0-0.4,0-0.5c-0.2,0.2-0.5,0.2-0.9,0c0-0.4,0.2-0.4,0.2-0.5c5.1,1.8,10.1,3.6,14.6,6
		c0,0.4-0.2,0.2-0.2,0.5C140,166.6,140.3,167.5,141.2,167.5z M139.1,168.1c0.4,0,0.5,0.2,0.5,0.5c-0.2,0.2-0.4,0-0.7-0.2
		C138.9,168.3,139.1,168.3,139.1,168.1z M136.4,167.2c-0.9,0.2-0.9-0.5-1.8-0.5c0.2-0.2,0.4-0.4,0.4-0.5c1.3,0.5,2.5,0.9,3.8,1.6
		C138.2,168.8,136.9,167.5,136.4,167.2z M139.3,169.7c0.4,0,0.5,0.2,0.7,0.4c0,0.5-0.7,0.4-0.9,0.2
		C139.1,169.9,139.4,169.9,139.3,169.7z M139.8,168.6c0.4-0.4,0.5,0.2,0.9,0.2c0,0.2-0.2,0.2-0.2,0.4c0.2-0.2,1.3,0.2,0.7,0.7
		C140.9,169.5,139.8,169.5,139.8,168.6z M124.5,163.4c0.2-0.2,0.4,0,0.7,0C125.5,164.3,124.5,164.3,124.5,163.4z M135.8,169.2
		c0,0.5-0.5,0.4-0.7,0.2C135.1,168.8,135.5,169,135.8,169.2z M136,171c-0.4,0-0.5,0-0.5-0.4C135.8,170.6,136,170.6,136,171z
		 M136.4,172.6c-0.2,0.2-0.5,0-0.5-0.4C136,172,136.4,172.2,136.4,172.6z M136.2,169.3c0.4,0.2,0.7,0.2,0.7,0.5c0,0-0.2,0-0.4,0.2
		C136.2,169.9,135.8,169.7,136.2,169.3z M135.5,168.4c0-1.1,2-0.2,2,0.4C136.7,169,136.2,168.3,135.5,168.4z M137.6,170.4
		c-0.4,0-0.5-0.2-0.5-0.5C137.3,169.9,137.5,170.1,137.6,170.4z M137.5,168.8c0.4-0.4,0.9,0.2,0.7,0.5
		C137.8,169.3,137.5,169.3,137.5,168.8z M138,170.4c0.2,0.2,0.5,0.2,0.5,0.5C138.2,171.1,137.6,170.8,138,170.4z M138.4,169.3
		c0.4-0.2,0.7,0,0.7,0.4C138.9,169.9,138.4,169.7,138.4,169.3z M141.8,169.7c0.4,0,0.5,0.2,0.5,0.5
		C142.1,170.6,141.2,170.1,141.8,169.7z M142.1,171.3c0.4,0,0.5,0.2,0.5,0.5C142.1,172,142,171.7,142.1,171.3z M142.7,170.2
		c0.2,0.2,0.4,0.2,0.4,0.5C142.7,170.8,142.5,170.4,142.7,170.2z M143,169.2c0.4-0.2,0.7,0,0.7,0.4C143.4,169.7,143,169.5,143,169.2
		z M143.6,170.8c0.4,0.2,0.7,0.2,0.7,0.5C143.9,171.7,143.2,171.1,143.6,170.8z M144.1,169.5c0.2,0.2,0.5,0.4,0.4,0.7
		C144.1,170.2,143.8,169.9,144.1,169.5z M122.5,157.3c0.2-0.2,0.7,0,0.5,0.4C122.8,157.6,122.5,157.6,122.5,157.3z M122.7,158.3
		c0,0.4-0.2,0.4-0.2,0.5c-0.2-0.2-0.5-0.2-0.5-0.5C122.3,158.2,122.3,158.5,122.7,158.3z M122.1,160c-0.4,0-0.7,0-0.7-0.4
		C121.6,159.4,122.3,159.4,122.1,160z M121.8,160.9c0,0.2-0.2,0.2-0.2,0.4c-0.4,0-0.7-0.2-0.7-0.5
		C121,160.3,121.6,160.7,121.8,160.9z M120.9,159.4c-0.2,0-0.4,0-0.4-0.4C120.9,159.1,121,159.1,120.9,159.4z M121.2,161.9
		c0,0.2-0.2,0.2-0.2,0.4c-0.4,0-0.4-0.2-0.7-0.2C120.1,161.4,121,161.6,121.2,161.9z M120.7,163c0,0.5-0.7,0.4-0.9,0
		c0-0.2,0.2-0.2,0.2-0.4C120.1,162.8,120.5,162.8,120.7,163z M119.6,159.1c0-0.2,0-0.2,0-0.4c0.2-0.2,0.7,0,0.5,0.4
		C120,159.1,119.6,159.1,119.6,159.1z M118.2,156.9c0.2-0.7,1.4,0,1.6,0.7C118.9,157.4,118.7,157.1,118.2,156.9z M118.3,158
		c0,0.7-0.7,0.2-0.9,0.2C117.4,157.4,118.2,157.4,118.3,158z M117.6,159.2c-0.2,0.2-0.7,0-0.7-0.4
		C117.3,158.7,117.8,158.9,117.6,159.2z M117.4,161.9c-0.4,0-0.5,0-0.5-0.4C117.3,161.6,117.4,161.6,117.4,161.9z M117.1,160.1
		c0,0.5-0.9,0.2-0.7-0.4C116.7,159.8,116.9,160,117.1,160.1z M116,158.5c0-0.2,0-0.4,0.2-0.5C116.9,158.3,116.7,159.1,116,158.5z
		 M116.5,161.4c-0.4,0.2-0.5-0.2-0.7-0.2C116,160.9,116.5,161,116.5,161.4z M115.6,159.4c0.2-0.2,0.5,0,0.5,0.4
		C115.8,160,115.6,159.8,115.6,159.4z M115.8,158.3c-0.4,0-0.5-0.2-0.7-0.5c0.2-0.2,0.9-0.2,0.7,0.4
		C115.8,158.2,115.8,158.2,115.8,158.3z M115.4,160.9c-0.4,0-0.4-0.2-0.5-0.4C114.9,160.3,115.4,160.5,115.4,160.9z M114.5,158.9
		c0.4,0,0.5,0.2,0.5,0.4C114.7,159.2,114.5,159.2,114.5,158.9z M114.7,157.6c-0.4,0-0.5-0.4-0.4-0.7c0.2,0.2,0.5,0.2,0.5,0.5
		C114.7,157.6,114.7,157.6,114.7,157.6z M116,162.7c-0.5-0.2-1.3-0.5-1.6-0.9C115.1,161.8,115.8,161.9,116,162.7z M116.7,165.7
		c-0.4,0-0.7,0-0.7-0.5C116.4,165.2,116.7,165.4,116.7,165.7z M116.2,162.7c0.4,0,0.5,0.2,0.7,0.4
		C116.9,163.4,116.2,163,116.2,162.7z M117.3,164.5c-0.4,0.2-0.7,0-0.7-0.4C116.9,164.3,117.3,164.3,117.3,164.5z M117.3,163.2
		c0-0.4,0.7-0.2,0.5,0.2C117.4,163.6,117.4,163.4,117.3,163.2z M118.2,165c-0.4,0-0.5,0-0.5-0.4C118,164.7,118.2,164.7,118.2,165z
		 M118.9,166.5c-0.2,0.5-0.9,0.2-0.9-0.2C118.3,166.1,118.5,166.5,118.9,166.5z M118.5,167.5c0.4,0,0.5,0.2,0.5,0.5
		c-0.2,0.2-0.5,0-0.7-0.2C118.3,167.9,118.5,167.7,118.5,167.5z M119.4,168.4c0.2-0.4,0.5-0.2,0.9-0.2
		C120.3,168.8,119.6,168.6,119.4,168.4z M120.5,169.7c0.2,0.4-0.7,0.4-0.5,0C120.1,169.7,120.3,169.7,120.5,169.7z M120.5,175.3
		c0,0.4-0.7,0.2-0.5-0.2C120.1,174.9,120.3,175.1,120.5,175.3z M120.1,167.2c0.4-0.2,0.4,0,0.7,0.2c0,0.2,0,0.4-0.2,0.5
		C120.5,167.5,120.1,167.5,120.1,167.2z M120.5,168.6c0.2-0.2,0.7,0,0.7,0.4c-0.2,0.2-0.4,0-0.7,0
		C120.5,168.8,120.5,168.6,120.5,168.6z M121.6,175.8c-0.2,0-0.4,0-0.4-0.4C121.4,175.5,121.6,175.5,121.6,175.8z M121.9,177.1
		c0,0.4-0.5,0.2-0.5-0.2C121.8,176.7,121.8,177.1,121.9,177.1z M121.8,169c0.4-0.2,0.4,0.4,0.7,0.4
		C122.3,169.5,121.6,169.3,121.8,169z M123.2,176.4c-0.4,0.4-0.9,0-1.3-0.4C122.5,175.7,122.7,176.4,123.2,176.4z M123,188.5
		c-0.2,0-0.5,0.2-0.5-0.2C122.7,188.3,123,188.3,123,188.5z M124.6,179.6c0.2,0.2,0.5,0,0.5,0.4
		C124.8,179.8,124.6,179.8,124.6,179.6z M124.5,178c0.4,0,0.4,0.2,0.7,0.2C125,178.5,124.3,178.5,124.5,178z M125.9,176.2
		c0-0.4,0.5-0.2,0.5,0.2C126.3,176.6,125.9,176.2,125.9,176.2z M125.9,168.1c0.2-0.2,0.7,0,0.7,0.4
		C126.3,168.4,126.1,168.3,125.9,168.1z M126.5,167c0.2-0.2,0.5,0,0.5,0.4C126.6,167.2,126.5,167.2,126.5,167z M127.2,175.3
		c-0.2,0.2-0.2-0.2-0.5-0.2C126.6,174.9,127.2,175.1,127.2,175.3z M121.8,164.3c0-0.4,0.2-0.5,0.2-0.7c0.7,0.2,1.6,0.4,1.8,1.1
		c1.4,0,3.2,0.5,4,1.4C125.7,166.3,123.9,164.8,121.8,164.3z M128.1,167.4c0,0.4-0.7,0.2-0.5-0.2
		C127.7,167.2,127.9,167.4,128.1,167.4z M127.9,166.5c0-0.4,0.5-0.4,0.7-0.2c0,0.2-0.2,0.2-0.2,0.4
		C128.3,166.6,128.1,166.5,127.9,166.5z M129,167.7c0,0.4-0.7,0.4-0.5,0C128.6,167.5,128.8,167.7,129,167.7z M127.2,165.2
		c-0.7-0.2-1.3-0.9-1.8-0.9h-0.2c0-0.2,0.2-0.4,0.4-0.5c1.3,0.2,2.7,0.9,4,1.4C129,165.7,127.9,165.4,127.2,165.2z M129.7,166.6
		c-0.2,0.5-0.4,0.4-0.7,0.2C129,166.1,129.5,166.5,129.7,166.6z M130.1,168.4c-0.4,0-0.5,0-0.5-0.4
		C129.5,167.9,130.1,167.9,130.1,168.4z M129.9,167.2c-0.2-0.2,0-0.2,0-0.4c1.3-0.4,1.8,0.7,2.9,0.9
		C132.2,168.6,130.8,167.2,129.9,167.2z M130.8,179.6c-0.4,0-0.5,0-0.5-0.4C130.4,179.4,130.8,179.4,130.8,179.6z M132.2,177.6
		c-0.2,0.2-0.7,0-0.5-0.4C132,177.3,132.2,177.3,132.2,177.6z M131.9,170.4c0.4,0,0.5,0,0.5,0.4
		C132.2,170.8,131.9,170.6,131.9,170.4z M132.9,176.6c-0.4,0-0.5-0.2-0.7-0.5C132.6,176.2,132.9,176.2,132.9,176.6z M133.3,178.2
		c-0.4,0-0.4,0-0.4-0.4C133.1,177.8,133.3,178,133.3,178.2z M132.9,175.1c0.4,0,0.7,0.2,0.5,0.5
		C133.3,175.5,132.9,175.5,132.9,175.1z M134,176.9c0,0.4-0.5,0.2-0.5-0.2C133.8,176.6,133.8,176.9,134,176.9z M133.7,174
		c0.4,0,0.5,0,0.5,0.4C133.8,174.4,133.5,174.4,133.7,174z M134.6,176c-0.4,0-0.4-0.2-0.5-0.2C134.2,175.5,134.7,175.7,134.6,176z
		 M134.2,173.1c0-0.4,0.5-0.2,0.5,0.2C134.4,173.3,134.4,173.1,134.2,173.1z M135.3,174.9c-0.4,0-0.7,0-0.5-0.5
		C135.1,174.4,135.5,174.8,135.3,174.9z M135.7,176.4c0,0.4-0.5,0.2-0.5-0.2C135.5,176.2,135.3,176.4,135.7,176.4z M135.3,173.3
		c0.2,0.2,0.4,0.2,0.5,0.2C135.7,173.9,135.3,173.7,135.3,173.3z M135.8,174.9c0.2,0.2,0.5,0.2,0.4,0.5
		C135.8,175.5,135.7,175.1,135.8,174.9z M136.4,176.9c-0.2,0-0.5,0-0.5-0.4C136.2,176.6,136.4,176.7,136.4,176.9z M136.2,174
		c0.2-0.2,0.5,0,0.5,0.4C136.6,174.4,136.2,174.2,136.2,174z M136.7,175.5c0.2,0,0.4,0.2,0.5,0.4C137.1,176,136.6,175.8,136.7,175.5
		z M136.7,172.8c0.2-0.2,0.7,0,0.7,0.4C137.3,173.3,136.7,173.1,136.7,172.8z M136.4,171.3c0.5-0.4,1.4,0.4,1.8,0.7
		C137.5,172.4,136.9,171.5,136.4,171.3z M138.5,173.7c-0.2,0.2-0.7,0-0.7-0.4C138,173.1,138.5,173.3,138.5,173.7z M138.7,175.3
		C138.2,175.7,138,174.6,138.7,175.3L138.7,175.3z M138.4,172.2c0.4-0.2,0.9,0.2,0.5,0.5C138.5,172.8,138.4,172.6,138.4,172.2z
		 M139.4,174.2c-0.2,0.4-0.5,0-0.7-0.2C138.9,173.7,139.3,174,139.4,174.2z M139.8,175.8c-0.2,0.2-0.7,0-0.5-0.4
		C139.4,175.5,139.4,175.8,139.8,175.8z M139.6,174.6c0-0.4,0.7-0.2,0.5,0.2C140,175.1,139.8,174.8,139.6,174.6z M140.5,176.6
		c-0.2,0-0.5,0-0.5-0.4C140.3,176.2,140.5,176.2,140.5,176.6z M140.2,173.3c0.4,0,0.5,0.2,0.5,0.5
		C140.3,173.9,140.2,173.7,140.2,173.3z M141.1,175.5c-0.4,0-0.5-0.2-0.5-0.5C140.9,175.1,141.2,175.1,141.1,175.5z M141.1,174
		c0.2-0.5,0.9,0,0.5,0.4C141.2,174.4,141.2,174,141.1,174z M142,176.2c-0.2-0.2-0.5-0.2-0.4-0.5C141.8,175.5,142,176,142,176.2z
		 M141.6,172.8c0.2,0,0.4,0,0.5,0.2c0,0.2,0,0.2,0,0.4C141.8,173.1,141.6,172.9,141.6,172.8z M142.5,174.8c-0.2,0.4-0.7,0.2-0.5-0.4
		C142.3,174.4,142.3,174.6,142.5,174.8z M142.3,173.3c0.2-0.2,0.7,0,0.7,0.5C142.9,173.9,142.5,173.7,142.3,173.3z M143,175.1
		c0.4,0,0.4,0.4,0.4,0.5C143,175.5,142.7,175.3,143,175.1z M143,172c0.4-0.2,0.7,0.2,0.5,0.5C143.2,172.6,143,172.4,143,172z
		 M143.9,174.4c-0.4,0-0.5,0-0.5-0.4C143.8,173.9,143.9,174,143.9,174.4z M144.1,175.8c0,0.2,0,0.2,0,0.4c-0.2,0-0.2-0.2-0.4-0.2
		C143.8,175.7,143.9,175.8,144.1,175.8z M143.8,172.8c0.4-0.4,0.7,0.2,0.5,0.5C144.1,173.3,143.9,173.1,143.8,172.8z M144.7,175.1
		c-0.4,0-0.4-0.2-0.4-0.5C144.7,174.6,144.7,174.8,144.7,175.1z M144.3,171.5c0.4-0.2,0.7,0.2,0.7,0.5
		C144.7,172.2,144.3,171.9,144.3,171.5z M144.9,173.3c0.4,0,0.4,0.2,0.5,0.5C145,174,144.5,173.5,144.9,173.3z M145.6,175.5
		c-0.2,0-0.4,0-0.4-0.4C145.4,175.3,145.6,175.3,145.6,175.5z M145.4,172c0.4,0,0.4,0.2,0.4,0.5C145.4,172.8,145.2,172.4,145.4,172z
		 M146.1,174.4c-0.4,0-0.4-0.2-0.4-0.5C145.9,174,146.1,174.2,146.1,174.4z M145.8,171c0.4,0,0.5,0.2,0.7,0.4
		C146.3,171.7,145.6,171.5,145.8,171z M146.8,173.1c-0.2,0.2-0.7,0-0.7-0.4C146.7,172.8,146.7,173.1,146.8,173.1z M146.7,171.5
		c0.4,0,0.5,0.2,0.5,0.5C146.8,172,146.5,171.7,146.7,171.5z M147.4,174c-0.4,0-0.4-0.4-0.5-0.5C147.2,173.5,147.6,173.5,147.4,174z
		 M147.2,170.4c0.4,0,0.5,0.2,0.5,0.5C147.4,171,147,170.6,147.2,170.4z M147.7,169.7c0-0.2,0-0.5,0.2-0.5c0.2,0.2,0.5,0.2,0.5,0.7
		C147.9,169.9,147.9,169.7,147.7,169.7z M147.9,172.8c-0.4,0-0.4,0-0.4-0.4C147.9,172.2,147.9,172.4,147.9,172.8z M148.3,174.4
		c0,0.4-0.5,0.2-0.4-0.2C148.1,174.2,148.3,174.2,148.3,174.4z M148.1,171c0.4,0,0.4,0.2,0.4,0.5C148.1,171.5,147.9,171.3,148.1,171
		z M148.1,167.7c-0.7,0.4-1.3-0.5-1.8-0.9c0-0.2-0.5,0-0.5-0.2c-5.1-3.2-11-5.4-16.8-7.8c0-0.2,0-0.2,0-0.4
		c6.7,1.6,12.6,4.7,17.9,8.1c0.2,0.2,0.4,0.4,0.4,0.7c0.9,0,1.8,0.7,1.6,1.4C148.3,168.4,148.1,168.3,148.1,167.7z M130.2,157.6
		c0.4,0,0.7,0,0.7,0.4C130.8,158.2,130.2,158,130.2,157.6z M148.6,169.9c0.4,0,0.4,0.2,0.4,0.5C148.6,170.4,148.5,170.1,148.6,169.9
		z M149.4,172c-0.2,0.2-0.4,0-0.4-0.4C149.2,171.7,149.4,171.9,149.4,172z M148.6,166.6c-0.4,0-0.4,0.2-0.5,0.2
		c-4.7-3.1-9.9-5.8-15.7-7.8c0-0.2-0.2-0.2-0.2-0.5c-0.2,0.2-0.9,0.2-0.9-0.4c0.2,0,0.2-0.2,0.4-0.4c4.1,1.3,8.3,3.1,11.9,5.2
		c1.6,0.9,3.2,1.4,4.3,2.9c1.3,0.4,1.8,1.3,2.7,1.8C149.9,168.3,148.5,167.5,148.6,166.6z M150.4,169.9c-0.4,0.2-0.7-0.2-0.5-0.7
		C150.3,169.3,150.4,169.5,150.4,169.9z M150.6,171.7c-0.2,0-0.4-0.2-0.4-0.4C150.6,171.3,150.8,171.3,150.6,171.7z M150.4,168.1
		c0.2-0.2,0.5,0.2,0.5,0.5C150.4,168.6,150.4,168.4,150.4,168.1z M151.2,170.4c-0.2,0-0.5,0-0.4-0.4
		C151.2,170.1,151.2,170.1,151.2,170.4z M151.5,172.4c-0.2,0-0.4-0.2-0.4-0.4C151.5,172,151.5,172,151.5,172.4z M151.2,168.8
		c0.4,0,0.5,0.2,0.5,0.5C151.3,169.2,151.2,169.2,151.2,168.8z M152.1,171.1c-0.4,0-0.5-0.2-0.5-0.4
		C151.7,170.6,152.1,170.8,152.1,171.1z M129,154.7c-0.7-0.2-2.7-0.4-2.5-1.4c0.7,0.4,1.3,0.2,1.6,0.9c0.2,0.4,0.2-0.4,0.5-0.2
		C128.8,154.4,129.2,154.2,129,154.7z M127.5,154.9c0,0.2,0,0.4,0,0.5c-0.4,0.2-0.7-0.2-0.9-0.5c-0.4,0.2-1.1-0.2-0.7-0.5
		C126.5,154.4,126.8,154.9,127.5,154.9z M125.4,152.9c0.4,0,0.5,0.2,0.7,0.4C125.9,153.8,125,153.3,125.4,152.9z M125.5,154.5
		c-0.2,0.2-0.7,0-0.7-0.4C125,154,125.5,154.2,125.5,154.5z M125.2,155.8c-0.4,0.2-0.7,0-0.7-0.4
		C124.6,155.1,125.2,155.3,125.2,155.8z M123.9,153.6c0.4,0,0.5,0.2,0.7,0.4C124.5,154.4,123.7,154.2,123.9,153.6z M124.1,155.3
		c-0.2,0.2-0.5-0.2-0.7-0.2C123.4,154.7,124.3,154.7,124.1,155.3z M123,153.5c0-0.4,0.5,0,0.5,0.2
		C123.2,153.8,123.2,153.5,123,153.5z M123.6,156.5c-0.4,0-0.7,0-0.5-0.5C123.4,156,123.7,156.2,123.6,156.5z M122.5,154.4
		c0.4,0,0.5,0.2,0.5,0.4C122.7,154.7,122.5,154.7,122.5,154.4z M122.5,155.6c0,0.2,0,0.2,0,0.4c-0.2,0.2-0.5,0-0.5-0.4
		C122.1,155.5,122.3,155.6,122.5,155.6z M122.1,157.1c-0.2,0.2-0.5,0-0.5-0.4C121.8,156.7,122.1,156.7,122.1,157.1z M121.8,154.2
		c-0.2,0-0.4-0.2-0.4-0.4C121.8,153.8,121.9,154.2,121.8,154.2z M121.6,155.5c-0.2,0.2-0.4-0.2-0.5-0.2
		C121,154.9,121.6,155.1,121.6,155.5z M120.9,152.4c0.4,0,0.4,0,0.4,0.4C121.2,152.6,120.9,152.6,120.9,152.4z M121,156.7
		c-0.2,0.2-0.5,0-0.5-0.4C120.9,156.4,121.2,156.4,121,156.7z M121.6,158.3c-0.7,0-1.1-0.4-1.6-0.5c0-0.2,0.2-0.2,0.2-0.4
		C120.5,157.6,121.2,157.8,121.6,158.3z M120,154.7c0.4,0,0.5,0,0.5,0.4C120.3,154.9,120,154.9,120,154.7z M120,151.7
		c0.2,0.2,0.4,0.2,0.4,0.4C120.3,152.4,119.8,151.8,120,151.7z M120.3,156.2c-0.2,0.2-0.7,0-0.7-0.4
		C119.8,155.6,120.3,155.8,120.3,156.2z M119.1,154c0.4,0,0.5,0.2,0.5,0.4C119.2,154.5,119.1,154.4,119.1,154z M119.1,151.3
		c0.2-0.2,0.5,0,0.5,0.4C119.1,151.7,119.1,151.5,119.1,151.3z M119.1,155.8c-0.2-0.2-0.5-0.4-0.4-0.5
		C119.1,155.3,119.4,155.6,119.1,155.8z M118.2,153.6c0.2,0,0.4,0.2,0.5,0.2C118.7,154.2,118.2,154,118.2,153.6z M118.5,151.1
		c-0.4,0-0.4,0-0.4-0.4C118.3,150.8,118.5,150.8,118.5,151.1z M118.2,154.9c0,0.4-0.5,0.4-0.5-0.2
		C117.8,154.7,118.2,154.7,118.2,154.9z M117.3,153.1c0.2-0.2,0.5,0,0.5,0.4C117.4,153.5,117.3,153.5,117.3,153.1z M118,156.4
		c-0.2,0,0,0.2-0.2,0.2c-0.4,0-0.5-0.2-0.7-0.4C117.1,155.6,117.8,156,118,156.4z M116.7,154.2C116.7,154.4,116.9,154.2,116.7,154.2
		c0.4,0,0.5,0,0.5,0.4C116.9,154.7,116.7,154.5,116.7,154.2z M116.9,155.6c0,0.4-0.2,0.4-0.2,0.5c-0.2-0.2-0.4-0.4-0.7-0.5
		c0-0.2,0.2-0.2,0.2-0.4C116.5,155.3,116.5,155.5,116.9,155.6z M116.2,152.4c0.4,0,0.5,0.2,0.5,0.5
		C116.5,152.9,116.2,152.7,116.2,152.4z M116.4,154c-0.4,0-0.5-0.2-0.5-0.5C116.2,153.6,116.4,153.8,116.4,154z M115.8,155.3
		c-0.4,0-0.4-0.2-0.5-0.5C115.6,154.5,116,155.1,115.8,155.3z M114.9,152.9c0.4,0,0.5,0.2,0.5,0.5
		C115.1,153.5,114.7,153.5,114.9,152.9z M116.4,156.9c0.5,0,0.7,0.2,0.9,0.2c0,0.4,0,0.5-0.2,0.7c-0.5-0.4-1.6-0.4-1.6-1.3
		c-0.2,0.7-0.7,0-0.9-0.4C114.9,155.5,116.2,156.5,116.4,156.9z M114.2,154.2c0.2-0.2,0.7,0,0.5,0.4
		C114.5,154.7,114.4,154.5,114.2,154.2z M113.8,152.6c0.2-0.2,0.5,0,0.5,0.2C114.4,153.1,114,152.6,113.8,152.6z M114.4,155.6
		c0,0.2-0.2,0.2-0.2,0.4c-0.4,0-0.4-0.2-0.5-0.5C114,155.3,114,155.6,114.4,155.6z M113.5,153.5c0.2,0.2,0.4,0.2,0.4,0.5
		C113.5,154,113.3,153.8,113.5,153.5z M113.8,157.1c-0.2,0.2-0.5-0.2-0.5-0.5C113.6,156.5,113.8,156.7,113.8,157.1z M113.5,159.8
		c-0.2,0-0.4-0.2-0.4-0.4C113.5,159.4,113.6,159.6,113.5,159.8z M112.9,157.6c0.2,0.2,0.5,0.2,0.4,0.5
		C112.7,158.3,112.6,158,112.9,157.6z M112.9,154.9c0.2,0,0.2,0,0.4,0c0,0.2,0.2,0.2,0.2,0.4C113.1,155.3,112.9,155.1,112.9,154.9z
		 M112.6,152.9c0.2,0.2,0.5,0.2,0.4,0.5C112.7,153.3,112.4,153.3,112.6,152.9z M112.9,156.4c-0.4,0-0.4-0.2-0.5-0.4
		C112.4,155.8,112.9,156.2,112.9,156.4z M112.2,157.8c-0.2-0.2-0.4-0.4-0.4-0.7C112.4,156.9,112.6,157.6,112.2,157.8z M112,154.2
		c0.4,0,0.5,0.2,0.5,0.5C112.2,154.5,112,154.5,112,154.2z M112.2,155.8c-0.4,0-0.5-0.2-0.7-0.5C111.7,155.3,112,155.5,112.2,155.8z
		 M111.5,154c-0.4,0-0.4-0.2-0.4-0.5C111.5,153.5,111.7,153.8,111.5,154z M114.5,164.5c0,0.4-0.7,0.2-0.5-0.2
		C114.2,164.1,114.2,164.5,114.5,164.5z M114.9,166.3c-0.2,0.2-0.7,0-0.7-0.4C114.5,165.7,114.7,165.9,114.9,166.3z M115.1,167.5
		c-0.2,0.4-0.4,0-0.5-0.2C114.7,167.2,114.7,167.7,115.1,167.5z M115.3,169c0,0.4-0.5,0.2-0.5-0.2C115.1,169,115.4,168.8,115.3,169z
		 M115.3,166.5c0-0.4,0.7-0.2,0.5,0.4C115.4,166.8,115.4,166.6,115.3,166.5z M116.2,168.3c0,0.4-0.7,0-0.7-0.4
		C115.8,167.7,116,168.1,116.2,168.3z M116.4,169.7c-0.2,0-0.4-0.2-0.4-0.4C116.4,169.3,116.5,169.5,116.4,169.7z M116.2,166.8
		c0.4,0,0.7,0,0.7,0.4C116.7,167.4,116.2,167.4,116.2,166.8z M117.3,168.8c-0.4,0-0.5,0-0.7-0.2
		C116.5,168.1,117.4,168.3,117.3,168.8z M117.1,165.6c0.4,0,0.7,0.2,0.7,0.5C117.4,166.3,116.9,166.1,117.1,165.6z M118,167.7
		c-0.4,0-0.5-0.2-0.7-0.4C117.4,167.2,118.2,167.4,118,167.7z M118.3,169.3c-0.4,0-0.7,0-0.5-0.4C118.2,169,118.3,168.8,118.3,169.3
		z M121.4,187.9c0.4-0.2,0.7-0.2,0.7,0.4c-0.5,0.2-1.3-0.2-1.6-0.4C120.7,187.4,121.2,187.2,121.4,187.9z M122.1,189.5
		c-0.2,0.2-0.5,0-0.5-0.4C121.9,189.2,122.1,189.2,122.1,189.5z M122.1,190.8c0,0.4-0.7,0-0.5-0.4
		C121.8,190.6,122.1,190.8,122.1,190.8z M121.8,192.3c0.2-0.2,0.5,0,0.7,0.4h-0.5C121.9,192.6,121.8,192.4,121.8,192.3z M167,192.6
		c0-0.4-0.2-0.4-0.2-0.7c0.5-0.4,0.4-0.9,0.4-1.6c0.2,0,0.5,0,0.5-0.2c0.2-2.3,1.4-3.6,1.8-5.6c0-0.2-0.4,0-0.4-0.4
		c0.5,0,0.7-0.2,0.9-0.4c-0.4-0.2-0.9-1.1-0.4-1.3c0.4,0.2,0.4,0.7,0.5,0.9c1.3,0.5,1.4,2.2,2.5,2.9c0.2,1.4,1.4,2.5,2,3.8
		c0,0.2-0.2,0.2-0.2,0.4c0.4,0.5,0.7,1.3,1.1,2H167V192.6z M175,156.7c-0.4,0-0.4,0-0.4-0.4C174.8,156.4,175,156.4,175,156.7z
		 M174.3,156c-0.4,0-0.7-0.4-0.4-0.5C173.9,155.6,174.3,155.6,174.3,156z M106.1,157.6c0,0.2-0.7,0-0.5-0.4
		C105.9,157.1,105.9,157.6,106.1,157.6z M105.5,155.6c0.2-0.2,0.5,0,0.5,0.4C105.7,156.2,105.5,156,105.5,155.6z M105.2,157.1
		c-0.4,0-0.4-0.2-0.4-0.5C105.2,156.5,105.3,156.7,105.2,157.1z M104.6,154.9c0.4-0.2,0.5,0.4,0.4,0.7
		C104.8,155.5,104.6,155.3,104.6,154.9z M104.4,156.4c-0.2,0-0.4-0.2-0.4-0.4C104.3,156,104.4,156,104.4,156.4z M103.4,157.1
		c0.2,0,0.4,0.2,0.4,0.4c-0.2,0-0.2,0-0.4,0C103.4,157.3,103.4,157.1,103.4,157.1z M103.2,155.3c0.4,0,0.5,0,0.5,0.4
		C103.4,155.8,103.2,155.5,103.2,155.3z M102.8,154.9c-0.4,0-0.5-0.2-0.5-0.5C102.6,154.5,102.8,154.5,102.8,154.9z M101,156.7
		c0.4-0.2,0.7,0,0.7,0.4c-0.2,0,0,0.2-0.2,0.4C101.4,157.3,101,157.1,101,156.7z M101.6,158.7c-0.2,0-0.4,0-0.4-0.4
		C101.4,158.3,101.6,158.5,101.6,158.7z M98,160.7c0.9,0,1.4,0.7,1.4,1.4C98.5,161.9,98,161.2,98,160.7z M99.2,165.2
		c-0.2-0.2-0.5-0.2-0.4-0.5C99.2,164.7,99.2,165,99.2,165.2z M95.6,163.6c0.7,0.7,1.6,0.7,2,2C97,165,96,164.7,95.6,163.6z
		 M96.1,165.4c0,0.2,0,0.2,0,0.4c-0.4,0-0.5-0.2-0.5-0.5C96,165.4,96,165.4,96.1,165.4z M97.2,163.2c0,0-0.2,0-0.2,0.2
		C96,163,96.9,162.1,97.2,163.2z M96.5,157.6c0.4,0,0.4,0.2,0.5,0.5C96.7,158,96.5,158,96.5,157.6z M97.2,159.8
		c0.4,0,0.4,0.4,0.7,0.4c0,0.2-0.2,0.4-0.4,0.4C97.2,160.7,97,160.1,97.2,159.8z M96.5,156.2c0.2-0.5,0.9-0.2,0.7,0.4
		C96.7,156.7,96.9,156.2,96.5,156.2z M96.7,157.4c-0.4,0.2-0.5,0-0.7-0.2C95.8,156.9,96.7,156.9,96.7,157.4z M96.1,162.5
		c-0.4,0-0.5-0.2-0.5-0.7C96,161.9,96.3,162.3,96.1,162.5z M97,163.7c0-0.4,0.4-0.2,0.4-0.5c0.4,0.2,0.7,0.5,0.5,0.9
		C97.4,164.3,97.6,163.7,97,163.7z M98,162.1c0.4,0,0.5,0.2,0.5,0.5C98.1,162.8,97.6,162.5,98,162.1z M98.3,164.1
		c0.2,0.2,0.4,0.2,0.4,0.5C98.3,164.8,98,164.3,98.3,164.1z M98.3,157.3c0,0.2,0.2,0.2,0.2,0.5c-0.2,0-0.4,0-0.5-0.2
		c0-0.2,0.2-0.2,0.2-0.4C98.1,157.3,98.1,157.3,98.3,157.3z M98.1,155.8c0.2,0,0.2,0,0.4,0c0,0.2-0.2,0.2-0.2,0.4
		C98.3,156.2,98.1,156,98.1,155.8z M98.7,159.6c-0.5,0-0.9-0.4-0.7-0.7c0.7,0.2,1.1,0.5,1.4,1.3C99,160.3,98.7,160,98.7,159.6z
		 M99.2,156.7C98.3,157.1,99,155.5,99.2,156.7L99.2,156.7z M99.2,158.3c-0.4,0-0.5-0.2-0.4-0.5C99,158,99.2,158.2,99.2,158.3z
		 M98.9,154.7c0.5-0.4,0.5,0.7,1.1,0.5c0,0.2-0.2,0.2-0.2,0.4C99.6,155.3,98.9,155.3,98.9,154.7z M99.9,157.4
		c-0.2,0-0.4-0.2-0.4-0.5C99.9,157.1,100.1,157.3,99.9,157.4z M99.6,158.7c0.4,0,0.5,0.2,0.5,0.5c-0.4,0.2-0.7,0-0.7-0.4
		C99.4,158.9,99.6,158.9,99.6,158.7z M100.8,156.4c-0.4,0-0.5-0.2-0.7-0.5C100.3,155.6,100.8,156,100.8,156.4z M100.3,154.7
		c0-0.2,0-0.2,0.2-0.4C100.7,154.4,100.7,154.7,100.3,154.7z M100.3,160.5c0.2,0.4-0.4,0.5-0.5,0.4
		C99.9,160.7,99.9,160.5,100.3,160.5z M100.7,161c0,0.2,0.2,0.2,0.2,0.5c-0.2-0.2-0.7,0-0.5-0.5C100.5,161,100.5,161,100.7,161z
		 M100.5,159.4c0.4,0,0.7,0.4,0.5,0.5C100.7,160,100.5,159.8,100.5,159.4z M100.8,154.7c0.4,0,0.5,0.2,0.5,0.5
		C101,155.5,100.8,155.3,100.8,154.7z M101.6,153.8c0.4,0,0.5,0,0.5,0.4C101.9,154.4,101.6,154.2,101.6,153.8z M102.1,157.6
		c-0.2,0-0.4,0-0.5-0.2C101.7,157.3,102.3,157.4,102.1,157.6z M101.6,155.6c0.4,0,0.5,0.2,0.5,0.5
		C102.1,156.2,101.6,156,101.6,155.6z M94.2,162.1C94.2,162.3,94.2,162.1,94.2,162.1c0.4,0,0.5,0.2,0.5,0.4
		C94.5,162.8,94.2,162.5,94.2,162.1z M94.5,164.5c-0.4,0.2-0.4-0.2-0.5-0.2c0-0.2,0-0.4,0.2-0.5C94.5,163.7,94.7,164.3,94.5,164.5z
		 M94.9,166.1c0.2,0.2,0.5,0.2,0.4,0.5c-0.4,0-0.4-0.2-0.5-0.2C94.7,166.3,94.9,166.3,94.9,166.1z M94.7,164.7
		c0.4-0.4,0.7,0.2,0.7,0.5C95.1,165.2,94.7,165,94.7,164.7z M95.2,161.4c0,0.2,0,0.2,0,0.4C94.9,161.8,94.9,161.2,95.2,161.4z
		 M95.1,158.3c0-0.2,0.2-0.4,0.4-0.4c0,0.2,0,0.2,0,0.4C95.4,158.3,95.2,158.3,95.1,158.3z M95.4,163.6c-0.4-0.2-0.7-0.2-0.7-0.7
		C95.1,162.7,95.8,163.2,95.4,163.6z M93.1,166.5c0.4,0,0.7,0.2,0.5,0.5C93.3,167,93.3,166.8,93.1,166.5z M93.4,168.4
		c-0.4,0-0.4-0.2-0.4-0.4C93.4,168.1,93.4,168.1,93.4,168.4z M93.3,165.2c0.2-0.9-1.1-0.4-0.7-1.3c0.5,0.4,1.1,0.7,1.4,1.3
		C93.8,165.4,93.4,165.4,93.3,165.2z M90.9,166.6c-0.2-0.2,0-0.7,0.2-0.7c0.7,0.5,1.3,1.1,1.8,1.8c-0.2,0.2-0.7-0.2-0.5-0.4
		C91.8,167.2,91.6,166.3,90.9,166.6z M91.6,168.3c0,0.2-0.9,0.4-0.7,0C91.1,168.3,91.5,168.3,91.6,168.3z M91.6,165
		c0.5-0.2,1.4,0.7,1.4,1.3C92.2,166.1,91.8,165.7,91.6,165z M91.8,163.4c0.2,0,0.4,0,0.4,0.4C92,163.9,91.8,163.7,91.8,163.4z
		 M92.7,162.8c0.2-0.4,0.5-0.2,0.5,0.4C92.9,163.2,92.9,162.8,92.7,162.8z M93.3,163c0.5,0,0.9,0.4,0.5,0.7
		C93.4,163.7,93.3,163.4,93.3,163z M90.6,165.6c-0.2,0.2-0.5,0-0.4-0.4C90.4,165.4,90.6,165.4,90.6,165.6z M107,223.6
		c0,0.2,0,0.4-0.2,0.4h-2.5c-0.2,0-0.4-0.2-0.4-0.4l-0.7-3.1c0-0.2-0.2-0.4-0.4-0.4h-5.2c-0.2,0-0.4,0.2-0.4,0.4l-0.7,3.1
		c0,0.2-0.2,0.4-0.4,0.4h-2.5c-0.2,0-0.4-0.2-0.2-0.4l5.2-21.8c0-0.2,0.2-0.4,0.4-0.4h2.3c0.2,0,0.4,0.2,0.4,0.4L107,223.6z
		 M73.1,209.6h4c0.2,0,0.4,0.2,0.4,0.4v2.3c0,0.2-0.2,0.4-0.4,0.4h-4c-0.2,0-0.4,0.2-0.4,0.4v7.4c0,0.2,0.2,0.4,0.4,0.4h5.2
		c0.2,0,0.4,0.2,0.4,0.4v2.3c0,0.2-0.2,0.4-0.4,0.4H70c-0.2,0-0.4-0.2-0.4-0.4v-21.6c0-0.2,0.2-0.4,0.4-0.4h8.3
		c0.2,0,0.4,0.2,0.4,0.4v2.3c0,0.2-0.2,0.4-0.4,0.4h-5.2c-0.2,0-0.4,0.2-0.4,0.4v4.1C72.7,209.4,72.7,209.6,73.1,209.6z M48,204.3
		h-2.9c-0.2,0-0.4-0.2-0.4-0.4v-2.3c0-0.2,0.2-0.4,0.4-0.4h9.6c0.2,0,0.4,0.2,0.4,0.4v2.3c0,0.2-0.2,0.4-0.4,0.4h-2.9
		c-0.2,0-0.4,0.2-0.4,0.4v18.9c0,0.2-0.2,0.4-0.4,0.4h-2.2c-0.2,0-0.4-0.2-0.4-0.4v-18.9C48.3,204.5,48.2,204.3,48,204.3z
		 M26.9,205.4l-0.5-0.7c-0.2-0.2-0.4-0.2-0.5-0.2h-1.4c-0.2,0-0.4,0.2-0.5,0.2l-0.5,0.7c-0.2,0.2-0.2,0.4-0.2,0.5v3.1
		c0,0.2,0.2,0.5,0.2,0.5l0.7,0.5c0.2,0.2,0.4,0.2,0.5,0.2h2.7c0.2,0,0.5,0.2,0.5,0.2l2.5,2.5c0.2,0.2,0.2,0.4,0.2,0.5v6.7
		c0,0.2-0.2,0.5-0.2,0.5l-2.5,2.5c-0.2,0.2-0.4,0.2-0.5,0.2h-4c-0.2,0-0.4-0.2-0.5-0.2l-2.9-2c-0.2-0.2-0.2-0.4-0.2-0.5V217
		c0-0.2,0.2-0.4,0.4-0.4h2.3c0.2,0,0.4,0.2,0.4,0.4v2.5c0,0.2,0.2,0.5,0.2,0.5l0.5,0.5c0.2,0.2,0.4,0.2,0.5,0.2h1.4
		c0.2,0,0.5-0.2,0.5-0.2l0.5-0.5c0.2-0.2,0.2-0.4,0.2-0.5v-4.1c0-0.2,0-0.5-0.2-0.5l-0.4-0.7c-0.2-0.2-0.4-0.2-0.5-0.2h-2.7
		c-0.2,0-0.5-0.2-0.5-0.2l-2.5-2.5c-0.2-0.2-0.2-0.4-0.2-0.5v-5.8c0-0.2,0.2-0.4,0.2-0.5l2.5-2.5c0.2-0.2,0.4-0.2,0.5-0.2h4
		c0.2,0,0.5,0.2,0.5,0.2l2.5,2.5c0.2,0.2,0.2,0.4,0.2,0.5v3.1c0,0.2-0.2,0.4-0.4,0.4h-2.3c-0.2,0-0.4-0.2-0.4-0.4v-1.8
		C27.1,205.8,27.1,205.6,26.9,205.4z M1.8,280.8v-47.4h140.5h5.6h147.9v47.4H1.8z"/>
</g>
</svg>
