<?xml version="1.0" encoding="utf-8"?>
<!-- Generator: Adobe Illustrator 21.1.0, SVG Export Plug-In . SVG Version: 6.00 Build 0)  -->
<svg version="1.1" id="linee_retro" xmlns="http://www.w3.org/2000/svg" xmlns:xlink="http://www.w3.org/1999/xlink" x="0px"
	 y="0px" viewBox="0 0 351 71" style="enable-background:new 0 0 351 71;" xml:space="preserve">
<style type="text/css">
	.st0{fill:#B7AB9F;}
	.st1{fill:#FFFFFF;}
	.st2{font-family:'ArialMT';}
	.st3{font-size:12px;}
</style>
<g>
	<path class="st0" d="M68.2,39.3c-1.3,4.3,5.6,10.2,15.2,12.6c-0.1,0.5-0.3,1.1-0.4,1.6C72,50.8,64.8,44,66.4,38.7
		c0.2-0.6,0.5-1.2,0.9-1.7c-18.7-5.6-37-12.6-54.8-21.1c2.7,6.5,5.7,13,8.8,19.4c-6.7,2.2-13.6,4.3-20.6,6.1
		c25.4,12.1,51.8,21.5,78.6,28.1c10,2.4,19.1,0.4,19.9-4s-6.6-9.6-16.1-11.9c0.1-0.5,0.3-1.1,0.4-1.6c7.8,1.9,14,5.5,16.5,9.3
		c1.4-7.2,2.7-14.4,4.1-21.6c-5.6-1.1-11.3-2.3-16.8-3.7C78,33.7,69.4,35.1,68.2,39.3z"/>
	<path class="st0" d="M338.7,15.9c-17.9,8.5-36.2,15.6-54.8,21.1c0.4,0.5,0.7,1.1,0.9,1.7c1.6,5.3-5.6,12.1-16.6,14.8
		c-0.1-0.5-0.3-1.1-0.4-1.6c9.5-2.3,16.4-8.3,15.2-12.6c-1.3-4.3-9.9-5.6-19-3.4c-5.6,1.4-11.2,2.6-16.8,3.7
		c1.4,7.2,2.7,14.4,4.1,21.6c2.6-3.9,8.7-7.4,16.5-9.3c0.1,0.5,0.3,1.1,0.4,1.6c-9.5,2.3-16.9,7.6-16.1,11.9c0.8,4.4,9.9,6.5,19.9,4
		c26.9-6.6,53.2-15.9,78.6-28.1c-7-1.8-13.9-3.9-20.6-6.1C333,28.8,335.9,22.4,338.7,15.9z"/>
	<g>
		<path class="st0" d="M280,29.3c-2-7.1-4.1-14.3-6.1-21.4c-0.3-0.9-0.5-1.8-0.8-2.7c-1.3-4.3-9.2-5.8-17.4-3.8
			c-0.1,0-0.2,0-0.3,0.1l0,0c-24.2,5.9-49,9.1-73.7,9.5c-4.1,0.1-8.2,0.1-12.4,0c-24.8-0.5-49.5-3.6-73.7-9.5l0,0
			c-0.1,0-0.2,0-0.3-0.1c-8.2-2-16.1-0.5-17.4,3.8c-0.3,0.9-0.5,1.8-0.8,2.7C75.1,15,73,22.2,71,29.3c-0.6,2-1.2,4.1-1.8,6.1
			c3.9-2.3,10.7-2.7,18.2-0.9c5.6,1.4,11.2,2.6,16.8,3.7c0.6,0.1,1.2,0.2,1.8,0.4c20.7,4,41.7,6.1,62.6,6.5c4.5,0.1,9.1,0.1,13.6,0
			c21-0.4,41.9-2.6,62.6-6.5c0.6-0.1,1.2-0.2,1.8-0.4c5.6-1.1,11.2-2.3,16.8-3.7c7.5-1.8,14.3-1.4,18.2,0.9
			C281.1,33.3,280.6,31.3,280,29.3z"/>
	</g>
	<g>
		<path class="st1" d="M97.5,22.5l-0.5,2c-0.6,2.4-2.2,3.4-4.5,2.8s-3.1-2.3-2.5-4.7l2-7.7c0.6-2.4,2.2-3.4,4.5-2.8
			c2.3,0.6,3.1,2.3,2.5,4.7l-0.4,1.4l-2.2-0.6l0.4-1.6c0.3-1.1-0.1-1.6-0.8-1.8c-0.7-0.2-1.3,0.1-1.6,1.1l-2.1,8
			c-0.3,1.1,0.1,1.6,0.8,1.8c0.7,0.2,1.3-0.1,1.6-1.1l0.6-2.1L97.5,22.5z"/>
		<path class="st1" d="M102.4,13.8l2.4,0.5l-2.9,12.9l3.9,0.9l-0.5,2.1l-6.3-1.4L102.4,13.8z"/>
		<path class="st1" d="M110.8,15.6l2.4,0.5l-2.9,15.1l-2.4-0.5L110.8,15.6z"/>
		<path class="st1" d="M117.4,23.4l3.3,0.6l-0.4,2.2l-3.3-0.6l-0.8,4.4l4.1,0.7l-0.4,2.2l-6.5-1.1l2.6-15.2l6.5,1.1l-0.4,2.2
			l-4.1-0.7L117.4,23.4z"/>
		<path class="st1" d="M126.8,22.6l-1.5,11.1l-2.2-0.3l2.1-15.3l3,0.4l1.2,9.5l1.2-9.1l2.1,0.3l-2.1,15.3l-2.5-0.3L126.8,22.6z"/>
		<path class="st1" d="M135,19.4l7.4,0.8l-0.2,2.2l-2.5-0.3l-1.4,13.1l-2.4-0.3l1.4-13.1l-2.5-0.3L135,19.4z"/>
		<path class="st1" d="M146.5,27l3.3,0.3l-0.2,2.2l-3.3-0.3l-0.4,4.5l4.2,0.3l-0.2,2.2l-6.6-0.5l1.2-15.3l6.6,0.5l-0.2,2.2l-4.2-0.3
			L146.5,27z"/>
		<path class="st1" d="M157.1,21c2.4,0.1,3.5,1.6,3.4,4l0,0.5l-2.3-0.1l0-0.6c0.1-1.1-0.4-1.5-1.1-1.6s-1.2,0.4-1.3,1.5
			c-0.2,3.2,4.5,4,4.3,8.4c-0.1,2.5-1.4,3.8-3.8,3.7c-2.4-0.1-3.5-1.6-3.4-4.1l0-0.9l2.3,0.1l-0.1,1.1c-0.1,1.1,0.4,1.5,1.2,1.6
			s1.3-0.3,1.3-1.4c0.2-3.2-4.5-4-4.3-8.4C153.5,22.3,154.8,20.9,157.1,21z"/>
		<path class="st1" d="M171.3,21.5c2.4,0,3.6,1.4,3.5,3.9l0,0.5l-2.3,0l0-0.6c0-1.1-0.4-1.5-1.2-1.5c-0.8,0-1.2,0.4-1.2,1.5
			c0,3.2,4.7,3.8,4.7,8.2c0,2.5-1.3,3.9-3.6,3.8c-2.4,0-3.6-1.4-3.6-3.9l0-0.9l2.3,0l0,1.1c0,1.1,0.5,1.5,1.2,1.5s1.3-0.4,1.3-1.5
			c0-3.2-4.7-3.8-4.7-8.2C167.7,22.8,168.9,21.4,171.3,21.5z"/>
		<path class="st1" d="M185.5,36.9l-2.4,0l-0.5-2.8l-3,0.1l-0.4,2.8l-2.2,0l2.2-15.4l3.5-0.1L185.5,36.9z M179.9,32.1l2.3,0
			l-1.3-7.8L179.9,32.1z"/>
		<path class="st1" d="M186,21.5l7.5-0.3l0.1,2.2l-2.5,0.1l0.6,13.2l-2.4,0.1l-0.6-13.2l-2.5,0.1L186,21.5z"/>
		<path class="st1" d="M195.7,21l2.4-0.2l1,15.4l-2.4,0.2L195.7,21z"/>
		<path class="st1" d="M204.3,20.2c2.3-0.2,3.7,1.1,3.9,3.6l0,0.5l-2.3,0.2l-0.1-0.6c-0.1-1.1-0.6-1.5-1.3-1.4
			c-0.8,0.1-1.2,0.5-1.1,1.6c0.3,3.2,5,3.3,5.4,7.7c0.2,2.5-0.9,4-3.3,4.2c-2.4,0.2-3.7-1.1-3.9-3.6l-0.1-0.9l2.3-0.2l0.1,1.1
			c0.1,1.1,0.6,1.5,1.4,1.4c0.8-0.1,1.2-0.5,1.1-1.6c-0.3-3.2-5-3.3-5.4-7.7C200.8,21.9,201.9,20.4,204.3,20.2z"/>
		<path class="st1" d="M213.4,26.4l3.1-0.3l0.2,2.2l-3.1,0.3l0.7,6.3l-2.4,0.3l-1.7-15.3l6.4-0.7l0.2,2.2l-4,0.4L213.4,26.4z"/>
		<path class="st1" d="M222.2,24.9l3.3-0.4l0.3,2.2l-3.3,0.4l0.6,4.5l4.1-0.6l0.3,2.2l-6.5,0.9L219,18.8l6.5-0.9l0.3,2.2l-4.1,0.6
			L222.2,24.9z"/>
		<path class="st1" d="M228.2,17.5l2.4-0.4l2.4,15.2l-2.4,0.4L228.2,17.5z"/>
		<path class="st1" d="M232.9,16.8l7.4-1.3l0.4,2.2l-2.5,0.4l2.3,13l-2.4,0.4l-2.3-13l-2.5,0.4L232.9,16.8z"/>
		<path class="st1" d="M243,18.7c-0.5-2.4,0.5-4.1,2.8-4.5s3.9,0.6,4.4,3l1.6,7.8c0.5,2.4-0.5,4.1-2.8,4.5s-3.9-0.6-4.4-3L243,18.7z
			 M247,26.2c0.2,1.1,0.8,1.4,1.5,1.2c0.8-0.2,1.1-0.7,0.9-1.7l-1.7-8.1c-0.2-1.1-0.8-1.4-1.5-1.2c-0.8,0.2-1.1,0.7-0.9,1.7
			L247,26.2z"/>
		<path class="st1" d="M255.1,12c2.3-0.6,3.8,0.5,4.4,2.9l0.1,0.5l-2.2,0.6l-0.2-0.6c-0.3-1.1-0.8-1.4-1.5-1.2s-1.1,0.7-0.8,1.8
			c0.8,3.1,5.5,2.5,6.6,6.8c0.6,2.4-0.3,4.1-2.6,4.6c-2.3,0.6-3.8-0.5-4.4-2.9l-0.2-0.9l2.2-0.6l0.3,1.1c0.3,1.1,0.8,1.3,1.6,1.1
			c0.7-0.2,1.1-0.7,0.9-1.8c-0.8-3.1-5.5-2.5-6.6-6.8C252,14.3,252.8,12.6,255.1,12z"/>
	</g>
	<text transform="matrix(1 0 0 1 0 -1.464844e-05)" class="st2 st3"> </text>
	<text transform="matrix(1 0 0 1 82.4994 32.1433)" class="st2 st3"> </text>
	<text transform="matrix(1 0 0 1 0 -1.464844e-05)" class="st2 st3"> </text>
</g>
</svg>
