<?xml version="1.0" encoding="utf-8"?>
<!-- Generator: Adobe Illustrator 18.0.0, SVG Export Plug-In . SVG Version: 6.00 Build 0)  -->
<!DOCTYPE svg PUBLIC "-//W3C//DTD SVG 1.1//EN" "http://www.w3.org/Graphics/SVG/1.1/DTD/svg11.dtd">
<svg version="1.1" id="linee_retro" xmlns="http://www.w3.org/2000/svg" xmlns:xlink="http://www.w3.org/1999/xlink" x="0px"
	 y="0px" viewBox="0 0 351 71" enable-background="new 0 0 351 71" xml:space="preserve">
<g>
	<path fill="#B7AB9F" d="M68.2,39.3c-1.3,4.3,5.6,10.2,15.2,12.6c-0.1,0.5-0.3,1.1-0.4,1.6c-11-2.7-18.2-9.5-16.6-14.8
		c0.2-0.6,0.5-1.2,0.9-1.7c-18.7-5.6-37-12.6-54.8-21.1c2.7,6.5,5.7,13,8.8,19.4c-6.7,2.2-13.6,4.3-20.6,6.1
		c25.4,12.1,51.8,21.5,78.6,28.1c10,2.4,19.1,0.4,19.9-4c0.8-4.4-6.6-9.6-16.1-11.9c0.1-0.5,0.3-1.1,0.4-1.6
		c7.8,1.9,14,5.5,16.5,9.3c1.4-7.2,2.7-14.4,4.1-21.6c-5.6-1.1-11.3-2.3-16.8-3.7C78,33.7,69.4,35.1,68.2,39.3z"/>
	<path fill="#B7AB9F" d="M338.7,15.9c-17.9,8.5-36.2,15.6-54.8,21.1c0.4,0.5,0.7,1.1,0.9,1.7c1.6,5.3-5.6,12.1-16.6,14.8
		c-0.1-0.5-0.3-1.1-0.4-1.6c9.5-2.3,16.4-8.3,15.2-12.6c-1.3-4.3-9.9-5.6-19-3.4c-5.6,1.4-11.2,2.6-16.8,3.7
		c1.4,7.2,2.7,14.4,4.1,21.6c2.6-3.9,8.7-7.4,16.5-9.3c0.1,0.5,0.3,1.1,0.4,1.6c-9.5,2.3-16.9,7.6-16.1,11.9c0.8,4.4,9.9,6.5,19.9,4
		c26.9-6.6,53.2-15.9,78.6-28.1c-7-1.8-13.9-3.9-20.6-6.1C333,28.8,335.9,22.4,338.7,15.9z"/>
	<g>
		<path fill="#B7AB9F" d="M224.4,21c-0.1-0.2-0.1-0.2-0.2,0c-0.3,2.4-0.5,4.8-0.8,7.1c0,0.2,0.1,0.3,0.3,0.3
			c1.1-0.1,2.2-0.3,3.2-0.5c0.2,0,0.3-0.2,0.2-0.4C226.2,25.4,225.3,23.2,224.4,21z"/>
		<path fill="#B7AB9F" d="M181.1,21.2c-0.2-0.2-0.4-0.4-0.6-0.6c-0.1-0.1-0.4-0.2-0.6-0.2c-0.4,0-0.9,0-1.3,0
			c-0.2,0-0.4,0.1-0.6,0.2c-0.2,0.2-0.4,0.4-0.6,0.6c-0.1,0.1-0.2,0.4-0.2,0.6c0,4,0,8,0.1,12c0,0.2,0.1,0.4,0.2,0.5
			c0.2,0.2,0.4,0.4,0.6,0.6c0.1,0.1,0.4,0.2,0.6,0.2c0.5,0,0.9,0,1.4,0c0.2,0,0.5-0.1,0.6-0.2c0.2-0.2,0.4-0.4,0.6-0.6
			c0.1-0.1,0.3-0.4,0.3-0.5c-0.1-4-0.1-8-0.2-12C181.3,21.6,181.2,21.3,181.1,21.2z"/>
		<path fill="#B7AB9F" d="M280,29.3c-2-7.1-4.1-14.3-6.1-21.4c-0.3-0.9-0.5-1.8-0.8-2.7c-1.3-4.3-9.2-5.8-17.4-3.8
			c-0.1,0-0.2,0-0.3,0.1c0,0,0,0,0,0c-24.2,5.9-49,9.1-73.7,9.5c-4.1,0.1-8.2,0.1-12.4,0c-24.8-0.5-49.5-3.6-73.7-9.5c0,0,0,0,0,0
			c-0.1,0-0.2,0-0.3-0.1c-8.2-2-16.1-0.5-17.4,3.8c-0.3,0.9-0.5,1.8-0.8,2.7c-2,7.1-4.1,14.3-6.1,21.4c-0.6,2-1.2,4.1-1.8,6.1
			c3.9-2.3,10.7-2.7,18.2-0.9c5.6,1.4,11.2,2.6,16.8,3.7c0.6,0.1,1.2,0.2,1.8,0.4c20.7,4,41.7,6.1,62.6,6.5c4.5,0.1,9.1,0.1,13.6,0
			c21-0.4,41.9-2.6,62.6-6.5c0.6-0.1,1.2-0.2,1.8-0.4c5.6-1.1,11.2-2.3,16.8-3.7c7.5-1.8,14.3-1.4,18.2,0.9
			C281.1,33.3,280.6,31.3,280,29.3z M97.3,11c0,0.2-0.2,0.3-0.4,0.2c-0.9-0.2-1.8-0.4-2.7-0.6c-0.2,0-0.4,0.1-0.4,0.2
			c-1.3,5.5-2.6,11.1-3.9,16.6c0,0.2-0.2,0.3-0.4,0.2c-0.7-0.2-1.4-0.4-2.2-0.5c-0.2-0.1-0.3-0.2-0.3-0.4c1.4-5.5,2.7-11.1,4.1-16.6
			c0-0.2-0.1-0.4-0.3-0.4c-0.9-0.2-1.8-0.5-2.7-0.7C88,9,87.9,8.8,88,8.7c0.2-0.7,0.3-1.3,0.5-2c0-0.2,0.2-0.3,0.4-0.2
			c2.9,0.7,5.8,1.5,8.7,2.1c0.2,0,0.3,0.2,0.3,0.4C97.6,9.6,97.5,10.3,97.3,11z M110.5,14c0,0.2-0.2,0.3-0.4,0.3
			c-1.6-0.3-3.2-0.6-4.8-1c-0.2,0-0.4,0.1-0.4,0.2c-0.3,1.2-0.5,2.5-0.8,3.7c0,0.2,0.1,0.3,0.3,0.4c1.2,0.3,2.5,0.5,3.7,0.7
			c0.2,0,0.3,0.2,0.3,0.4c-0.1,0.7-0.3,1.4-0.4,2.2c0,0.2-0.2,0.3-0.4,0.3c-1.2-0.2-2.5-0.5-3.7-0.8c-0.2,0-0.4,0.1-0.4,0.2
			c-0.4,2.2-0.9,4.4-1.3,6.6c0,0.2,0.1,0.3,0.3,0.4c1.7,0.3,3.4,0.7,5,1c0.2,0,0.3,0.2,0.3,0.4c-0.1,0.7-0.3,1.4-0.4,2.2
			c0,0.2-0.2,0.3-0.4,0.3c-2.7-0.5-5.4-1.1-8.1-1.7c-0.2,0-0.3-0.2-0.3-0.4c1.4-6.4,2.7-12.9,4.1-19.3c0-0.2,0.2-0.3,0.4-0.2
			c2.6,0.6,5.1,1.1,7.7,1.6c0.2,0,0.3,0.2,0.3,0.4C110.7,12.5,110.6,13.2,110.5,14z M124.7,19.7c0,0.2-0.2,0.3-0.4,0.3
			c-0.8-0.1-1.5-0.2-2.3-0.3c-0.2,0-0.3-0.2-0.3-0.4c0.1-0.5,0.2-1.1,0.2-1.6c0-0.2,0-0.4-0.1-0.6c-0.2-0.2-0.3-0.5-0.5-0.7
			c-0.1-0.1-0.4-0.3-0.5-0.3c-0.4-0.1-0.9-0.1-1.3-0.2c-0.2,0-0.4,0-0.6,0.1c-0.2,0.2-0.4,0.3-0.7,0.5c-0.2,0.1-0.3,0.3-0.3,0.5
			c-0.2,0.9-0.3,1.9-0.5,2.8c0,0.2,0,0.4,0.1,0.6c0.2,0.2,0.3,0.4,0.5,0.7c0.1,0.2,0.3,0.3,0.5,0.3c0.9,0.1,1.7,0.3,2.6,0.4
			c0.2,0,0.4,0.2,0.5,0.3c0.7,0.9,1.4,1.7,2,2.6c0.1,0.1,0.2,0.4,0.1,0.6c-0.3,2-0.6,4-0.9,6c0,0.2-0.2,0.4-0.3,0.5
			c-0.9,0.6-1.8,1.2-2.7,1.9c-0.2,0.1-0.4,0.1-0.6,0.1c-1.3-0.2-2.6-0.4-3.9-0.6c-0.2,0-0.4-0.2-0.5-0.3c-0.7-0.9-1.4-1.8-2-2.6
			c-0.1-0.1-0.2-0.4-0.2-0.6c0.2-1.1,0.4-2.3,0.6-3.4c0-0.2,0.2-0.3,0.4-0.3c0.8,0.1,1.6,0.3,2.3,0.4c0.2,0,0.3,0.2,0.3,0.4
			c-0.1,0.7-0.2,1.5-0.4,2.2c0,0.2,0,0.4,0.2,0.6c0.2,0.2,0.3,0.4,0.5,0.7c0.1,0.1,0.4,0.3,0.5,0.3c0.5,0.1,0.9,0.1,1.4,0.2
			c0.2,0,0.5,0,0.6-0.1c0.2-0.2,0.5-0.3,0.7-0.5c0.2-0.1,0.3-0.3,0.3-0.5c0.2-1.2,0.4-2.4,0.6-3.6c0-0.2,0-0.4-0.1-0.6
			c-0.2-0.2-0.4-0.4-0.5-0.7c-0.1-0.2-0.3-0.3-0.5-0.3c-0.9-0.1-1.7-0.3-2.6-0.4c-0.2,0-0.4-0.2-0.5-0.3c-0.7-0.9-1.3-1.7-2-2.6
			c-0.1-0.2-0.2-0.4-0.1-0.6c0.3-1.7,0.6-3.4,0.9-5.1c0-0.2,0.2-0.4,0.3-0.5c0.9-0.6,1.8-1.2,2.6-1.8c0.2-0.1,0.4-0.2,0.6-0.1
			c1.2,0.2,2.5,0.4,3.7,0.6c0.2,0,0.4,0.2,0.5,0.3c0.6,0.9,1.3,1.7,2,2.6c0.1,0.1,0.2,0.4,0.1,0.6C125,17.8,124.9,18.7,124.7,19.7z
			 M139.6,18.1c0,0.2-0.2,0.3-0.4,0.3c-0.9-0.1-1.8-0.2-2.7-0.3c-0.2,0-0.3,0.1-0.4,0.3c-0.6,5.7-1.3,11.3-1.9,17
			c0,0.2-0.2,0.3-0.4,0.3c-0.7-0.1-1.5-0.2-2.2-0.3c-0.2,0-0.3-0.2-0.3-0.4c0.7-5.7,1.3-11.3,2-17c0-0.2-0.1-0.3-0.3-0.4
			c-0.9-0.1-1.8-0.2-2.7-0.3c-0.2,0-0.3-0.2-0.3-0.4c0.1-0.7,0.2-1.4,0.3-2.1c0-0.2,0.2-0.3,0.4-0.2c2.9,0.4,5.9,0.7,8.8,1
			c0.2,0,0.3,0.2,0.3,0.3C139.7,16.7,139.6,17.4,139.6,18.1z M153.4,19.4c0,0.2-0.2,0.3-0.4,0.3c-0.8-0.1-1.6-0.1-2.4-0.2
			c-0.2,0-0.3,0.1-0.4,0.3c-0.3,4.7-0.7,9.3-1,14c0,0.2,0.2,0.3,0.3,0.3c0.8,0.1,1.7,0.1,2.5,0.2c0.2,0,0.3,0.2,0.3,0.3
			c0,0.7-0.1,1.5-0.1,2.2c0,0.2-0.2,0.3-0.4,0.3c-2.9-0.2-5.9-0.4-8.8-0.7c-0.2,0-0.3-0.2-0.3-0.4c0.1-0.7,0.1-1.5,0.2-2.2
			c0-0.2,0.2-0.3,0.4-0.3c0.8,0.1,1.6,0.1,2.4,0.2c0.2,0,0.4-0.1,0.4-0.3c0.4-4.7,0.7-9.3,1.1-14c0-0.2-0.1-0.3-0.3-0.3
			c-0.8-0.1-1.6-0.1-2.3-0.2c-0.2,0-0.3-0.2-0.3-0.4c0.1-0.7,0.1-1.5,0.2-2.2c0-0.2,0.2-0.3,0.4-0.3c2.8,0.2,5.5,0.5,8.3,0.6
			c0.2,0,0.3,0.2,0.3,0.3C153.5,18,153.5,18.7,153.4,19.4z M168.8,37.6c0,0.2-0.2,0.3-0.4,0.3c-0.8,0-1.6,0-2.4-0.1
			c-0.2,0-0.3-0.1-0.3-0.3c0.1-3.2,0.2-6.4,0.3-9.7c0-0.2-0.1-0.2-0.1,0c-0.6,1.9-1.3,3.8-1.9,5.7c-0.1,0.2-0.2,0.3-0.4,0.3
			c-0.4,0-0.8,0-1.2,0c-0.2,0-0.4-0.1-0.4-0.3c-0.5-1.9-1-3.7-1.5-5.6c-0.1-0.2-0.1-0.2-0.1,0c-0.1,3.2-0.3,6.3-0.4,9.5
			c0,0.2-0.2,0.3-0.4,0.3c-0.8,0-1.6-0.1-2.4-0.1c-0.2,0-0.3-0.2-0.3-0.3c0.3-6.6,0.7-13.1,1-19.7c0-0.2,0.2-0.3,0.3-0.3
			c0.8,0,1.5,0.1,2.3,0.1c0.2,0,0.4,0.2,0.4,0.3c0.7,2.8,1.4,5.7,2.1,8.5c0,0.2,0.1,0.2,0.2,0c0.9-2.8,1.9-5.5,2.8-8.3
			c0.1-0.2,0.3-0.3,0.4-0.3c0.8,0,1.6,0,2.4,0.1c0.2,0,0.3,0.2,0.3,0.3C169,24.5,168.9,31.1,168.8,37.6z M184.4,35.4
			c-0.8,0.8-1.6,1.5-2.4,2.3c-0.1,0.1-0.4,0.2-0.6,0.2c-1.3,0-2.6,0-3.9,0c-0.2,0-0.5-0.1-0.6-0.2c-0.8-0.7-1.6-1.5-2.4-2.3
			c-0.1-0.1-0.2-0.4-0.2-0.5c0-4.8,0-9.6,0.1-14.4c0-0.2,0.1-0.4,0.2-0.6c0.8-0.7,1.6-1.5,2.3-2.2c0.1-0.1,0.4-0.2,0.6-0.2
			c1.2,0,2.5,0,3.7,0c0.2,0,0.4,0.1,0.6,0.2c0.8,0.7,1.6,1.5,2.4,2.2c0.1,0.1,0.2,0.4,0.2,0.6c0.1,4.8,0.2,9.6,0.4,14.4
			C184.6,35.1,184.5,35.3,184.4,35.4z M200,37.2c-0.6,0-1.3,0.1-1.9,0.1c-0.2,0-0.4-0.1-0.5-0.3c-1.7-3.7-3.4-7.5-5-11.3
			c-0.1-0.2-0.1-0.1-0.1,0c0.2,3.8,0.4,7.6,0.5,11.5c0,0.2-0.2,0.3-0.3,0.3c-0.8,0-1.6,0.1-2.4,0.1c-0.2,0-0.4-0.1-0.4-0.3
			c-0.3-6.6-0.5-13.2-0.8-19.8c0-0.2,0.1-0.3,0.3-0.3c0.8,0,1.5-0.1,2.3-0.1c0.2,0,0.4,0.1,0.5,0.3c1.4,3.4,2.9,6.7,4.4,10.1
			c0.1,0.2,0.1,0.2,0.1,0c-0.2-3.4-0.4-6.8-0.6-10.2c0-0.2,0.1-0.3,0.3-0.3c0.8,0,1.5-0.1,2.3-0.1c0.2,0,0.3,0.1,0.4,0.3
			c0.4,6.6,0.9,13.2,1.3,19.8C200.3,37,200.2,37.2,200,37.2z M214.5,35.9c-2.9,0.3-5.8,0.6-8.8,0.8c-0.2,0-0.4-0.1-0.4-0.3
			c-0.1-0.7-0.1-1.5-0.2-2.2c0-0.2,0.1-0.3,0.3-0.4c0.8-0.1,1.6-0.1,2.4-0.2c0.2,0,0.3-0.2,0.3-0.4c-0.4-4.7-0.8-9.3-1.2-14
			c0-0.2-0.2-0.3-0.4-0.3c-0.8,0.1-1.6,0.1-2.3,0.2c-0.2,0-0.3-0.1-0.4-0.3c-0.1-0.7-0.1-1.5-0.2-2.2c0-0.2,0.1-0.3,0.3-0.3
			c2.8-0.2,5.5-0.5,8.3-0.8c0.2,0,0.3,0.1,0.4,0.3c0.1,0.7,0.2,1.5,0.2,2.2c0,0.2-0.1,0.3-0.3,0.4c-0.8,0.1-1.6,0.2-2.4,0.3
			c-0.2,0-0.3,0.2-0.3,0.4c0.5,4.7,0.9,9.3,1.4,14c0,0.2,0.2,0.3,0.4,0.3c0.8-0.1,1.7-0.2,2.5-0.3c0.2,0,0.4,0.1,0.4,0.3
			c0.1,0.7,0.2,1.5,0.2,2.2C214.9,35.7,214.7,35.9,214.5,35.9z M232.7,33.5c-0.8,0.1-1.7,0.3-2.5,0.4c-0.2,0-0.4-0.1-0.5-0.3
			c-0.4-0.9-0.8-1.8-1.1-2.7c-0.1-0.2-0.3-0.3-0.5-0.2c-1.6,0.2-3.1,0.5-4.7,0.7c-0.2,0-0.4,0.2-0.4,0.4c-0.1,1-0.2,1.9-0.4,2.9
			c0,0.2-0.2,0.3-0.4,0.4c-0.8,0.1-1.7,0.2-2.5,0.3c-0.2,0-0.3-0.1-0.3-0.3c0.9-6.8,1.8-13.5,2.5-20.3c0-0.2,0.2-0.3,0.4-0.3
			c0.7-0.1,1.5-0.2,2.2-0.3c0.2-0.1,0.4,0.1,0.4,0.2c2.6,6.3,5.2,12.6,8,18.8C233,33.3,232.9,33.5,232.7,33.5z M246.5,31
			c-2.9,0.6-5.8,1.1-8.8,1.6c-0.2,0-0.4-0.1-0.4-0.3c-1.1-6.5-2.2-13-3.3-19.5c0-0.2,0.1-0.3,0.3-0.4c0.7-0.1,1.5-0.3,2.2-0.4
			c0.2,0,0.4,0.1,0.4,0.3c1,5.5,2,11.1,2.9,16.6c0,0.2,0.2,0.3,0.4,0.3c1.9-0.3,3.8-0.7,5.6-1.1c0.2,0,0.4,0.1,0.4,0.2
			c0.1,0.7,0.3,1.4,0.4,2.2C246.8,30.8,246.7,31,246.5,31z M261.4,25.2c-0.6,0.9-1.2,1.8-1.9,2.8c-0.1,0.1-0.4,0.3-0.6,0.4
			c-1.3,0.3-2.6,0.6-3.9,0.9c-0.2,0-0.5,0-0.6-0.1c-1-0.6-1.9-1.1-2.8-1.7c-0.2-0.1-0.3-0.3-0.4-0.5c-0.2-1.1-0.5-2.2-0.7-3.4
			c0-0.2,0.1-0.4,0.3-0.4c0.8-0.2,1.5-0.3,2.3-0.5c0.2,0,0.4,0.1,0.4,0.2c0.2,0.7,0.3,1.5,0.5,2.2c0,0.2,0.2,0.4,0.4,0.5
			c0.2,0.1,0.5,0.3,0.7,0.4c0.2,0.1,0.4,0.1,0.6,0.1c0.4-0.1,0.9-0.2,1.3-0.3c0.2,0,0.4-0.2,0.6-0.3c0.2-0.2,0.3-0.5,0.5-0.7
			c0.1-0.2,0.1-0.4,0.1-0.6c-0.3-1.2-0.5-2.4-0.8-3.6c0-0.2-0.2-0.4-0.4-0.5c-0.2-0.1-0.5-0.3-0.7-0.4c-0.1-0.1-0.4-0.1-0.6-0.1
			c-0.8,0.2-1.7,0.4-2.5,0.6c-0.2,0-0.5,0-0.6-0.1c-0.9-0.6-1.9-1.1-2.8-1.7c-0.1-0.1-0.3-0.3-0.3-0.5c-0.4-1.7-0.7-3.4-1.1-5.1
			c0-0.2,0-0.4,0.1-0.6c0.6-0.9,1.2-1.8,1.8-2.7c0.1-0.2,0.3-0.3,0.5-0.4c1.2-0.3,2.4-0.6,3.7-0.8c0.2,0,0.5,0,0.6,0.1
			c0.9,0.5,1.8,1.1,2.8,1.6c0.1,0.1,0.3,0.3,0.3,0.5c0.2,0.9,0.4,1.8,0.6,2.7c0,0.2-0.1,0.3-0.3,0.4c-0.8,0.2-1.5,0.4-2.3,0.5
			c-0.2,0-0.4-0.1-0.4-0.2c-0.1-0.5-0.2-1-0.4-1.6c0-0.2-0.2-0.4-0.3-0.5c-0.2-0.1-0.5-0.3-0.7-0.4c-0.2-0.1-0.4-0.1-0.6-0.1
			c-0.4,0.1-0.9,0.2-1.3,0.3c-0.2,0-0.4,0.2-0.5,0.3c-0.1,0.2-0.3,0.5-0.4,0.7c-0.1,0.1-0.2,0.4-0.1,0.6c0.2,0.9,0.4,1.9,0.6,2.8
			c0,0.2,0.2,0.4,0.3,0.5c0.2,0.1,0.5,0.3,0.7,0.4c0.1,0.1,0.4,0.2,0.6,0.1c0.8-0.2,1.7-0.4,2.5-0.6c0.2,0,0.5,0,0.6,0.1
			c0.9,0.5,1.9,1.1,2.8,1.6c0.1,0.1,0.3,0.3,0.4,0.5c0.5,2,0.9,3.9,1.4,5.9C261.5,24.8,261.5,25,261.4,25.2z"/>
	</g>
</g>
</svg>
